<svg width="578" height="344" xmlns="http://www.w3.org/2000/svg" xmlns:xlink="http://www.w3.org/1999/xlink" xml:space="preserve" overflow="hidden"><g><g><g><g><path d="M45.7231 26.9231 40.3385 26.9231 27.2819 26.9231C27.2212 26.9231 27.1605 26.9243 27.0999 26.9267L22.7063 27.1015C22.6457 27.1039 22.5851 27.1051 22.5244 27.1051L17.2308 27.1051 22.5244 27.1051C22.5851 27.1051 22.6457 27.1039 22.7063 27.1015L27.0999 26.9267C27.1605 26.9243 27.2212 26.9231 27.2819 26.9231L40.3385 26.9231 45.7231 26.9231ZM45.7231 26.9231 51.1078 26.9231M17.2308 27.1051 11.8462 27.1051M45.7231 24.7692 45.7231 29.0769M17.2308 24.9512 17.2308 29.2589" stroke="#9B9CA4" stroke-width="0.538462" stroke-linecap="butt" stroke-linejoin="miter" stroke-miterlimit="4" stroke-opacity="1" fill="none" fill-rule="nonzero" transform="matrix(1.00133 0 0 1 160.987 17.2308)"/><text fill="#000000" fill-opacity="1" font-family="Open Sans,Open Sans_MSFontService,sans-serif" font-style="normal" font-variant="normal" font-weight="400" font-stretch="normal" font-size="14" text-anchor="start" direction="ltr" writing-mode="lr-tb" unicode-bidi="normal" text-decoration="none" transform="matrix(0.539179 0 0 0.538462 206.229 41)">1</text><text fill="#000000" fill-opacity="1" font-family="Open Sans,Open Sans_MSFontService,sans-serif" font-style="normal" font-variant="normal" font-weight="400" font-stretch="normal" font-size="14" text-anchor="start" direction="ltr" writing-mode="lr-tb" unicode-bidi="normal" text-decoration="none" transform="matrix(0.539179 0 0 0.538462 174.466 42)">1</text></g><g><path d="M82.3055 83.8223 76.9208 83.8223 28 83.8223C24.4102 83.8223 22.6154 82.0276 22.6154 78.4377L22.6154 29.6154C22.6154 27.8205 21.7179 26.9231 19.9231 26.9231L17.2308 26.9231 19.9231 26.9231C21.7179 26.9231 22.6154 27.8205 22.6154 29.6154L22.6154 78.4377C22.6154 82.0276 24.4102 83.8223 28 83.8223L76.9208 83.8223 82.3055 83.8223ZM82.3055 83.8223 87.6901 83.8223M17.2308 26.9231 11.8462 26.9231M82.3055 81.6685 82.3055 85.9762M17.2308 24.7692 17.2308 29.0769" stroke="#9B9CA4" stroke-width="0.538462" stroke-linecap="butt" stroke-linejoin="miter" stroke-miterlimit="4" stroke-opacity="1" fill="none" fill-rule="nonzero" transform="matrix(1.00133 0 0 1 313.9 0)"/><text fill="#000000" fill-opacity="1" font-family="Open Sans,Open Sans_MSFontService,sans-serif" font-style="normal" font-variant="normal" font-weight="400" font-stretch="normal" font-size="14" text-anchor="start" direction="ltr" writing-mode="lr-tb" unicode-bidi="normal" text-decoration="none" transform="matrix(0.539179 0 0 0.538462 395.774 81)">1</text><text fill="#000000" fill-opacity="1" font-family="Open Sans,Open Sans_MSFontService,sans-serif" font-style="normal" font-variant="normal" font-weight="400" font-stretch="normal" font-size="14" text-anchor="start" direction="ltr" writing-mode="lr-tb" unicode-bidi="normal" text-decoration="none" transform="matrix(0.539179 0 0 0.538462 327.38 24)">1</text></g><g><path d="M35.8039 181.793 30.4193 181.793 17.2308 181.793C13.641 181.793 11.8462 179.998 11.8462 176.408L11.8462 35.1651C11.8462 31.5753 13.641 29.7805 17.2308 29.7805L31.848 29.7805 37.2326 29.7805 31.848 29.7805 17.2308 29.7805C13.641 29.7805 11.8462 31.5753 11.8462 35.1651L11.8462 176.408C11.8462 179.998 13.641 181.793 17.2308 181.793L30.4193 181.793 35.8039 181.793ZM35.8039 181.793 41.1885 181.793M37.2326 29.7805 42.6172 29.7805M41.1885 179.639 36.3423 181.793 41.1885 183.947M37.2326 27.6266 37.2326 31.9343" stroke="#9B9CA4" stroke-width="0.538462" stroke-linecap="butt" stroke-linejoin="miter" stroke-miterlimit="4" stroke-opacity="1" fill="none" fill-rule="nonzero" transform="matrix(1.00133 0 0 1 0 14.5554)"/><text fill="#000000" fill-opacity="1" font-family="Open Sans,Open Sans_MSFontService,sans-serif" font-style="normal" font-variant="normal" font-weight="400" font-stretch="normal" font-size="14" text-anchor="start" direction="ltr" writing-mode="lr-tb" unicode-bidi="normal" text-decoration="none" transform="matrix(0.539179 0 0 0.538462 35.4682 194)">*</text><text fill="#000000" fill-opacity="1" font-family="Open Sans,Open Sans_MSFontService,sans-serif" font-style="normal" font-variant="normal" font-weight="400" font-stretch="normal" font-size="14" text-anchor="start" direction="ltr" writing-mode="lr-tb" unicode-bidi="normal" text-decoration="none" transform="matrix(0.539179 0 0 0.538462 36.7404 42)">1</text></g><g><path d="M17.2308 213.579 22.6154 213.579 29.2888 213.579C32.8785 213.579 34.6734 211.784 34.6734 208.195L34.6734 29.6154C34.6734 27.8205 35.5708 26.9231 37.3657 26.9231L40.058 26.9231 37.3657 26.9231C35.5708 26.9231 34.6734 27.8205 34.6734 29.6154L34.6734 208.195C34.6734 211.784 32.8785 213.579 29.2888 213.579L22.6154 213.579 17.2308 213.579ZM17.2308 213.579 11.8462 213.579M40.058 26.9231 45.4426 26.9231M11.8462 211.425 16.6923 213.579 11.8462 215.733M40.058 24.7692 40.058 29.0769" stroke="#9B9CA4" stroke-width="0.538462" stroke-linecap="butt" stroke-linejoin="miter" stroke-miterlimit="4" stroke-opacity="1" fill="none" fill-rule="nonzero" transform="matrix(1.00133 0 0 1 166.66 0)"/><text fill="#000000" fill-opacity="1" font-family="Open Sans,Open Sans_MSFontService,sans-serif" font-style="normal" font-variant="normal" font-weight="400" font-stretch="normal" font-size="14" text-anchor="start" direction="ltr" writing-mode="lr-tb" unicode-bidi="normal" text-decoration="none" transform="matrix(0.539179 0 0 0.538462 180.139 211)">*</text><text fill="#000000" fill-opacity="1" font-family="Open Sans,Open Sans_MSFontService,sans-serif" font-style="normal" font-variant="normal" font-weight="400" font-stretch="normal" font-size="14" text-anchor="start" direction="ltr" writing-mode="lr-tb" unicode-bidi="normal" text-decoration="none" transform="matrix(0.539179 0 0 0.538462 206.229 24)">1</text></g><g><path d="M43.4759 51.0138 38.0913 51.0138 28 51.0138C24.4102 51.0138 22.6154 49.2189 22.6154 45.6292L22.6154 29.6154C22.6154 27.8205 21.7179 26.9231 19.9231 26.9231L17.2308 26.9231 19.9231 26.9231C21.7179 26.9231 22.6154 27.8205 22.6154 29.6154L22.6154 45.6292C22.6154 49.2189 24.4102 51.0138 28 51.0138L38.0913 51.0138 43.4759 51.0138ZM43.4759 51.0138 48.8605 51.0138M17.2308 26.9231 11.8462 26.9231M43.4759 48.8599 43.4759 53.1676M17.2308 24.7692 17.2308 29.0769" stroke="#9B9CA4" stroke-width="0.538462" stroke-linecap="butt" stroke-linejoin="miter" stroke-miterlimit="4" stroke-opacity="1" fill="none" fill-rule="nonzero" transform="matrix(1.00133 0 0 1 166.66 152.195)"/><text fill="#000000" fill-opacity="1" font-family="Open Sans,Open Sans_MSFontService,sans-serif" font-style="normal" font-variant="normal" font-weight="400" font-stretch="normal" font-size="14" text-anchor="start" direction="ltr" writing-mode="lr-tb" unicode-bidi="normal" text-decoration="none" transform="matrix(0.539179 0 0 0.538462 209.652 201)">1</text><text fill="#000000" fill-opacity="1" font-family="Open Sans,Open Sans_MSFontService,sans-serif" font-style="normal" font-variant="normal" font-weight="400" font-stretch="normal" font-size="14" text-anchor="start" direction="ltr" writing-mode="lr-tb" unicode-bidi="normal" text-decoration="none" transform="matrix(0.539179 0 0 0.538462 180.139 176)">1</text></g><g><path d="M1.61538 0 128.386 0C129.279 -2.39125e-16 130.002 0.723235 130.002 1.61538L130.002 17.2308 0 17.2308 0 1.61538C-2.39125e-16 0.723235 0.723235 0 1.61538 0Z" fill="#316896" fill-rule="nonzero" fill-opacity="1" transform="matrix(1.00133 0 0 1 42.674 18.4897)"/><text fill="#FFFFFF" fill-opacity="1" font-family="Open Sans,Open Sans_MSFontService,sans-serif" font-style="normal" font-variant="normal" font-weight="700" font-stretch="normal" font-size="13" text-anchor="start" direction="ltr" writing-mode="lr-tb" unicode-bidi="normal" text-decoration="none" transform="matrix(0.539179 0 0 0.538462 48.0658 29)">User</text></g><g><path d="M0 0 130.002 0 130.002 17.2308 3.68089e-06 17.2308Z" fill="#F2F2F2" fill-rule="nonzero" fill-opacity="1" transform="matrix(1.00133 0 0 1 42.674 35.7205)"/><text fill="#2C2C2C" fill-opacity="1" font-family="Open Sans,Open Sans_MSFontService,sans-serif" font-style="normal" font-variant="normal" font-weight="700" font-stretch="normal" font-size="13" text-anchor="start" direction="ltr" writing-mode="lr-tb" unicode-bidi="normal" text-decoration="none" transform="matrix(0.539179 0 0 0.538462 48.0658 46)">id</text><path d="M3.53365 0.530062C4.41188 0.530062 5.12379 1.24196 5.12379 2.12019 5.12379 2.99842 4.41188 3.71032 3.53365 3.71032 3.32419 3.71032 3.12426 3.66978 2.94108 3.59617L2.47358 4.06372 2.12019 4.06372 2.12019 4.59378 1.59013 4.59378 1.59013 5.12379 0.530062 5.12379 0.530062 4.06372 2.01169 2.58203C1.96635 2.43228 1.94342 2.27667 1.94352 2.12019 1.94352 1.24196 2.65542 0.530062 3.53365 0.530062ZM3.53365 0C2.36277 0 1.41346 0.949146 1.41346 2.12019 1.41346 2.21771 1.42008 2.31479 1.43333 2.4108L0.0775923 3.76654C0.0279462 3.81624 0 3.88365 0 3.95392L0 5.38882C0 5.53522 0.118677 5.65385 0.265031 5.65385L1.85516 5.65385C2.00152 5.65385 2.12019 5.53522 2.12019 5.38882L2.12019 5.12379 2.38522 5.12379C2.53158 5.12379 2.65025 5.00516 2.65025 4.85875L2.65025 4.63793 3.09249 4.19435C3.23669 4.22498 3.38412 4.24039 3.53365 4.24039 4.70454 4.24039 5.65385 3.29124 5.65385 2.12019 5.65385 0.949308 4.7047 0 3.53365 0ZM3.53365 1.59013C3.53365 1.88289 3.77095 2.12019 4.06372 2.12019 4.35642 2.12019 4.59378 1.88289 4.59378 1.59013 4.59378 1.29742 4.35642 1.06012 4.06372 1.06012 3.77095 1.06012 3.53365 1.29742 3.53365 1.59013Z" fill="#2C2C2C" fill-rule="nonzero" fill-opacity="1" transform="matrix(1.00133 0 0 1 56.7971 40.7012)"/><path d="M2.42839 3.4794C2.32324 3.4794 2.22436 3.43842 2.14986 3.36405 1.56152 2.77564 1.56152 1.81824 2.14986 1.22987L2.93837 0.441355C3.22293 0.156735 3.60187 -2.2956e-16 4.00542 -2.2956e-16 4.40898 -2.2956e-16 4.78791 0.156735 5.07246 0.441355 5.6608 1.02973 5.6608 1.98713 5.07246 2.5755L4.54682 3.10117C4.47245 3.17558 4.37358 3.21655 4.2683 3.21659 4.16315 3.21659 4.06428 3.17561 3.98977 3.10124 3.9154 3.02683 3.87436 2.9279 3.87436 2.82265 3.87436 2.71743 3.91539 2.6185 3.98977 2.54409L4.51541 2.01842C4.79663 1.73721 4.79663 1.27966 4.51541 0.998469 4.37948 0.86254 4.19829 0.787651 4.00542 0.787651 3.81256 0.787651 3.63136 0.86254 3.49543 0.998469L2.70692 1.78698C2.4257 2.06817 2.4257 2.52571 2.70692 2.8069 2.86054 2.96049 2.86054 3.21043 2.70692 3.36402 2.63241 3.43843 2.53354 3.4794 2.42839 3.4794ZM1.50842 5.51385C1.10487 5.51385 0.725932 5.35711 0.441388 5.07249-0.146957 4.48411-0.146957 3.52672 0.441388 2.93834L0.835714 2.54405C0.910086 2.46968 1.00909 2.4287 1.11424 2.4287 1.21939 2.4287 1.31839 2.4697 1.39276 2.54411 1.46714 2.61848 1.50818 2.71742 1.50818 2.82264 1.50818 2.92788 1.46715 3.02682 1.39276 3.10123L0.998437 3.49549C0.71722 3.77664 0.71722 4.23418 0.998437 4.51538 1.13437 4.65131 1.31556 4.7262 1.50842 4.7262 1.70129 4.7262 1.88248 4.65134 2.01841 4.51538L2.80692 3.72686C3.08814 3.44568 3.08814 2.98814 2.80692 2.70694 2.73255 2.63254 2.69151 2.5336 2.69151 2.42839 2.69151 2.32317 2.73254 2.22423 2.80692 2.14983 2.8813 2.07542 2.9803 2.03448 3.08545 2.03448 3.1906 2.03448 3.2896 2.07541 3.36397 2.1498 3.95232 2.73821 3.95232 3.6956 3.36397 4.28398L2.57546 5.07249C2.29092 5.35711 1.91198 5.51385 1.50842 5.51385Z" fill="#2C2C2C" fill-rule="nonzero" fill-opacity="1" transform="matrix(1.00133 0 0 1 64.6152 40.7712)"/><text fill="#6A6A6A" fill-opacity="1" font-family="Inconsolata,Inconsolata_MSFontService,sans-serif" font-style="normal" font-variant="normal" font-weight="700" font-stretch="normal" font-size="13" text-anchor="start" direction="ltr" writing-mode="lr-tb" unicode-bidi="normal" text-decoration="none" transform="matrix(0.539179 0 0 0.538462 156.943 46)">int</text></g><g><path d="M0 0 130.002 0 130.002 17.2308 3.68089e-06 17.2308Z" fill="#F2F2F2" fill-rule="nonzero" fill-opacity="1" transform="matrix(1.00133 0 0 1 42.674 52.9512)"/><text fill="#3C3C3C" fill-opacity="1" font-family="Open Sans,Open Sans_MSFontService,sans-serif" font-style="normal" font-variant="normal" font-weight="400" font-stretch="normal" font-size="13" text-anchor="start" direction="ltr" writing-mode="lr-tb" unicode-bidi="normal" text-decoration="none" transform="matrix(0.539179 0 0 0.538462 48.0658 63)">username</text><path d="M1.07692 0 11.8462 0C11.8462 0 12.9231 0 12.9231 1.07692L12.9231 7.53846C12.9231 7.53846 12.9231 8.61539 11.8462 8.61539L1.07692 8.61539C1.07692 8.61539 0 8.61539 0 7.53846L0 1.07692C0 1.07692 0 0 1.07692 0" fill="#DEDEDE" fill-rule="nonzero" fill-opacity="1" transform="matrix(1.00133 0 0 1 154.517 56.4512)"/><path d="M5.82142 6.73077 5.19249 6.73077 2.63515 2.66026 2.60948 2.66026C2.6159 2.76855 2.62338 2.8923 2.63195 3.03152 2.6405 3.16852 2.64692 3.31548 2.6512 3.47238 2.65761 3.62707 2.66082 3.78507 2.66082 3.94638L2.66082 6.73077 2.15385 6.73077 2.15385 1.88462 2.77954 1.88462 5.32726 5.94187 5.34972 5.94187C5.34544 5.86449 5.3401 5.75513 5.33368 5.61368 5.32726 5.47007 5.32084 5.31648 5.31443 5.15295 5.31015 4.98721 5.30801 4.83363 5.30801 4.6922L5.30801 1.88462 5.82142 1.88462 5.82142 6.73077Z" fill="#3C3C3C" fill-rule="nonzero" fill-opacity="1" transform="matrix(1.00133 0 0 1 154.517 56.4512)"/><path d="M10.7692 6.73077 10.1403 6.73077 7.58299 2.66026 7.55731 2.66026C7.56372 2.76855 7.5712 2.8923 7.57976 3.03152 7.58832 3.16852 7.59473 3.31548 7.59904 3.47238 7.60545 3.62707 7.60868 3.78507 7.60868 3.94638L7.60868 6.73077 7.10166 6.73077 7.10166 1.88462 7.72735 1.88462 10.2751 5.94187 10.2975 5.94187C10.2933 5.86449 10.2879 5.75513 10.2815 5.61368 10.2751 5.47007 10.2687 5.31648 10.2623 5.15295 10.258 4.98721 10.2559 4.83363 10.2559 4.6922L10.2559 1.88462 10.7692 1.88462 10.7692 6.73077Z" fill="#3C3C3C" fill-rule="nonzero" fill-opacity="1" transform="matrix(1.00133 0 0 1 154.517 56.4512)"/><text fill="#6A6A6A" fill-opacity="1" font-family="Inconsolata,Inconsolata_MSFontService,sans-serif" font-style="normal" font-variant="normal" font-weight="400" font-stretch="normal" font-size="13" text-anchor="start" direction="ltr" writing-mode="lr-tb" unicode-bidi="normal" text-decoration="none" transform="matrix(0.539179 0 0 0.538462 110.304 63)">varchar(150)</text></g><g><path d="M0 0 130.002 0 130.002 17.2308 3.68089e-06 17.2308Z" fill="#F2F2F2" fill-rule="nonzero" fill-opacity="1" transform="matrix(1.00133 0 0 1 42.674 70.182)"/><text fill="#3C3C3C" fill-opacity="1" font-family="Open Sans,Open Sans_MSFontService,sans-serif" font-style="normal" font-variant="normal" font-weight="400" font-stretch="normal" font-size="13" text-anchor="start" direction="ltr" writing-mode="lr-tb" unicode-bidi="normal" text-decoration="none" transform="matrix(0.539179 0 0 0.538462 48.0658 81)">email</text><path d="M1.07692 0 11.8462 0C11.8462 0 12.9231 0 12.9231 1.07692L12.9231 7.53846C12.9231 7.53846 12.9231 8.61539 11.8462 8.61539L1.07692 8.61539C1.07692 8.61539 0 8.61539 0 7.53846L0 1.07692C0 1.07692 0 0 1.07692 0" fill="#DEDEDE" fill-rule="nonzero" fill-opacity="1" transform="matrix(1.00133 0 0 1 154.517 73.682)"/><path d="M5.82142 6.73077 5.19249 6.73077 2.63515 2.66026 2.60948 2.66026C2.6159 2.76855 2.62338 2.8923 2.63195 3.03152 2.6405 3.16852 2.64692 3.31548 2.6512 3.47238 2.65761 3.62707 2.66082 3.78507 2.66082 3.94638L2.66082 6.73077 2.15385 6.73077 2.15385 1.88462 2.77954 1.88462 5.32726 5.94187 5.34972 5.94187C5.34544 5.86449 5.3401 5.75513 5.33368 5.61368 5.32726 5.47007 5.32084 5.31648 5.31443 5.15295 5.31015 4.98721 5.30801 4.83363 5.30801 4.6922L5.30801 1.88462 5.82142 1.88462 5.82142 6.73077Z" fill="#3C3C3C" fill-rule="nonzero" fill-opacity="1" transform="matrix(1.00133 0 0 1 154.517 73.682)"/><path d="M10.7692 6.73077 10.1403 6.73077 7.58299 2.66026 7.55731 2.66026C7.56372 2.76855 7.5712 2.8923 7.57976 3.03152 7.58832 3.16852 7.59473 3.31548 7.59904 3.47238 7.60545 3.62707 7.60868 3.78507 7.60868 3.94638L7.60868 6.73077 7.10166 6.73077 7.10166 1.88462 7.72735 1.88462 10.2751 5.94187 10.2975 5.94187C10.2933 5.86449 10.2879 5.75513 10.2815 5.61368 10.2751 5.47007 10.2687 5.31648 10.2623 5.15295 10.258 4.98721 10.2559 4.83363 10.2559 4.6922L10.2559 1.88462 10.7692 1.88462 10.7692 6.73077Z" fill="#3C3C3C" fill-rule="nonzero" fill-opacity="1" transform="matrix(1.00133 0 0 1 154.517 73.682)"/><text fill="#6A6A6A" fill-opacity="1" font-family="Inconsolata,Inconsolata_MSFontService,sans-serif" font-style="normal" font-variant="normal" font-weight="400" font-stretch="normal" font-size="13" text-anchor="start" direction="ltr" writing-mode="lr-tb" unicode-bidi="normal" text-decoration="none" transform="matrix(0.539179 0 0 0.538462 110.304 81)">varchar(254)</text></g><g><path d="M0 0 130.002 0 130.002 17.2308 3.68089e-06 17.2308Z" fill="#F2F2F2" fill-rule="nonzero" fill-opacity="1" transform="matrix(1.00133 0 0 1 42.674 87.4128)"/><text fill="#3C3C3C" fill-opacity="1" font-family="Open Sans,Open Sans_MSFontService,sans-serif" font-style="normal" font-variant="normal" font-weight="400" font-stretch="normal" font-size="13" text-anchor="start" direction="ltr" writing-mode="lr-tb" unicode-bidi="normal" text-decoration="none" transform="matrix(0.539179 0 0 0.538462 48.0658 98)">password</text><path d="M1.07692 0 11.8462 0C11.8462 0 12.9231 0 12.9231 1.07692L12.9231 7.53846C12.9231 7.53846 12.9231 8.61539 11.8462 8.61539L1.07692 8.61539C1.07692 8.61539 0 8.61539 0 7.53846L0 1.07692C0 1.07692 0 0 1.07692 0" fill="#DEDEDE" fill-rule="nonzero" fill-opacity="1" transform="matrix(1.00133 0 0 1 154.517 90.9128)"/><path d="M5.82142 6.73077 5.19249 6.73077 2.63515 2.66026 2.60948 2.66026C2.6159 2.76855 2.62338 2.8923 2.63195 3.03152 2.6405 3.16852 2.64692 3.31548 2.6512 3.47238 2.65761 3.62707 2.66082 3.78507 2.66082 3.94638L2.66082 6.73077 2.15385 6.73077 2.15385 1.88462 2.77954 1.88462 5.32726 5.94187 5.34972 5.94187C5.34544 5.86449 5.3401 5.75513 5.33368 5.61368 5.32726 5.47007 5.32084 5.31648 5.31443 5.15295 5.31015 4.98721 5.30801 4.83363 5.30801 4.6922L5.30801 1.88462 5.82142 1.88462 5.82142 6.73077Z" fill="#3C3C3C" fill-rule="nonzero" fill-opacity="1" transform="matrix(1.00133 0 0 1 154.517 90.9128)"/><path d="M10.7692 6.73077 10.1403 6.73077 7.58299 2.66026 7.55731 2.66026C7.56372 2.76855 7.5712 2.8923 7.57976 3.03152 7.58832 3.16852 7.59473 3.31548 7.59904 3.47238 7.60545 3.62707 7.60868 3.78507 7.60868 3.94638L7.60868 6.73077 7.10166 6.73077 7.10166 1.88462 7.72735 1.88462 10.2751 5.94187 10.2975 5.94187C10.2933 5.86449 10.2879 5.75513 10.2815 5.61368 10.2751 5.47007 10.2687 5.31648 10.2623 5.15295 10.258 4.98721 10.2559 4.83363 10.2559 4.6922L10.2559 1.88462 10.7692 1.88462 10.7692 6.73077Z" fill="#3C3C3C" fill-rule="nonzero" fill-opacity="1" transform="matrix(1.00133 0 0 1 154.517 90.9128)"/><text fill="#6A6A6A" fill-opacity="1" font-family="Inconsolata,Inconsolata_MSFontService,sans-serif" font-style="normal" font-variant="normal" font-weight="400" font-stretch="normal" font-size="13" text-anchor="start" direction="ltr" writing-mode="lr-tb" unicode-bidi="normal" text-decoration="none" transform="matrix(0.539179 0 0 0.538462 110.304 98)">varchar(255)</text></g><g><path d="M0 0 130.002 0 130.002 17.2308 3.68089e-06 17.2308Z" fill="#F2F2F2" fill-rule="nonzero" fill-opacity="1" transform="matrix(1.00133 0 0 1 42.674 104.644)"/><text fill="#3C3C3C" fill-opacity="1" font-family="Open Sans,Open Sans_MSFontService,sans-serif" font-style="normal" font-variant="normal" font-weight="400" font-stretch="normal" font-size="13" text-anchor="start" direction="ltr" writing-mode="lr-tb" unicode-bidi="normal" text-decoration="none" transform="matrix(0.539179 0 0 0.538462 48.0658 115)">is_staff</text><path d="M1.07692 0 11.8462 0C11.8462 0 12.9231 0 12.9231 1.07692L12.9231 7.53846C12.9231 7.53846 12.9231 8.61539 11.8462 8.61539L1.07692 8.61539C1.07692 8.61539 0 8.61539 0 7.53846L0 1.07692C0 1.07692 0 0 1.07692 0" fill="#DEDEDE" fill-rule="nonzero" fill-opacity="1" transform="matrix(1.00133 0 0 1 154.517 108.144)"/><path d="M5.82142 6.73077 5.19249 6.73077 2.63515 2.66026 2.60948 2.66026C2.6159 2.76855 2.62338 2.8923 2.63195 3.03152 2.6405 3.16852 2.64692 3.31548 2.6512 3.47238 2.65761 3.62707 2.66082 3.78507 2.66082 3.94638L2.66082 6.73077 2.15385 6.73077 2.15385 1.88462 2.77954 1.88462 5.32726 5.94187 5.34972 5.94187C5.34544 5.86449 5.3401 5.75513 5.33368 5.61368 5.32726 5.47007 5.32084 5.31648 5.31443 5.15295 5.31015 4.98721 5.30801 4.83363 5.30801 4.6922L5.30801 1.88462 5.82142 1.88462 5.82142 6.73077Z" fill="#3C3C3C" fill-rule="nonzero" fill-opacity="1" transform="matrix(1.00133 0 0 1 154.517 108.144)"/><path d="M10.7692 6.73077 10.1403 6.73077 7.58299 2.66026 7.55731 2.66026C7.56372 2.76855 7.5712 2.8923 7.57976 3.03152 7.58832 3.16852 7.59473 3.31548 7.59904 3.47238 7.60545 3.62707 7.60868 3.78507 7.60868 3.94638L7.60868 6.73077 7.10166 6.73077 7.10166 1.88462 7.72735 1.88462 10.2751 5.94187 10.2975 5.94187C10.2933 5.86449 10.2879 5.75513 10.2815 5.61368 10.2751 5.47007 10.2687 5.31648 10.2623 5.15295 10.258 4.98721 10.2559 4.83363 10.2559 4.6922L10.2559 1.88462 10.7692 1.88462 10.7692 6.73077Z" fill="#3C3C3C" fill-rule="nonzero" fill-opacity="1" transform="matrix(1.00133 0 0 1 154.517 108.144)"/><text fill="#6A6A6A" fill-opacity="1" font-family="Inconsolata,Inconsolata_MSFontService,sans-serif" font-style="normal" font-variant="normal" font-weight="400" font-stretch="normal" font-size="13" text-anchor="start" direction="ltr" writing-mode="lr-tb" unicode-bidi="normal" text-decoration="none" transform="matrix(0.539179 0 0 0.538462 127.828 115)">boolean</text></g><g><path d="M0 0 130.002 0 130.002 15.6154C130.002 16.5076 129.279 17.2308 128.386 17.2308L1.61538 17.2308C0.723235 17.2308 0 16.5076 0 15.6154Z" fill="#F2F2F2" fill-rule="nonzero" fill-opacity="1" transform="matrix(1.00133 0 0 1 42.674 121.874)"/><text fill="#3C3C3C" fill-opacity="1" font-family="Open Sans,Open Sans_MSFontService,sans-serif" font-style="normal" font-variant="normal" font-weight="400" font-stretch="normal" font-size="13" text-anchor="start" direction="ltr" writing-mode="lr-tb" unicode-bidi="normal" text-decoration="none" transform="matrix(0.539179 0 0 0.538462 48.0658 132)">is_superuser</text><path d="M1.07692 0 11.8462 0C11.8462 0 12.9231 0 12.9231 1.07692L12.9231 7.53846C12.9231 7.53846 12.9231 8.61539 11.8462 8.61539L1.07692 8.61539C1.07692 8.61539 0 8.61539 0 7.53846L0 1.07692C0 1.07692 0 0 1.07692 0" fill="#DEDEDE" fill-rule="nonzero" fill-opacity="1" transform="matrix(1.00133 0 0 1 154.517 125.374)"/><path d="M5.82142 6.73077 5.19249 6.73077 2.63515 2.66026 2.60948 2.66026C2.6159 2.76855 2.62338 2.8923 2.63195 3.03152 2.6405 3.16852 2.64692 3.31548 2.6512 3.47238 2.65761 3.62707 2.66082 3.78507 2.66082 3.94638L2.66082 6.73077 2.15385 6.73077 2.15385 1.88462 2.77954 1.88462 5.32726 5.94187 5.34972 5.94187C5.34544 5.86449 5.3401 5.75513 5.33368 5.61368 5.32726 5.47007 5.32084 5.31648 5.31443 5.15295 5.31015 4.98721 5.30801 4.83363 5.30801 4.6922L5.30801 1.88462 5.82142 1.88462 5.82142 6.73077Z" fill="#3C3C3C" fill-rule="nonzero" fill-opacity="1" transform="matrix(1.00133 0 0 1 154.517 125.374)"/><path d="M10.7692 6.73077 10.1403 6.73077 7.58299 2.66026 7.55731 2.66026C7.56372 2.76855 7.5712 2.8923 7.57976 3.03152 7.58832 3.16852 7.59473 3.31548 7.59904 3.47238 7.60545 3.62707 7.60868 3.78507 7.60868 3.94638L7.60868 6.73077 7.10166 6.73077 7.10166 1.88462 7.72735 1.88462 10.2751 5.94187 10.2975 5.94187C10.2933 5.86449 10.2879 5.75513 10.2815 5.61368 10.2751 5.47007 10.2687 5.31648 10.2623 5.15295 10.258 4.98721 10.2559 4.83363 10.2559 4.6922L10.2559 1.88462 10.7692 1.88462 10.7692 6.73077Z" fill="#3C3C3C" fill-rule="nonzero" fill-opacity="1" transform="matrix(1.00133 0 0 1 154.517 125.374)"/><text fill="#6A6A6A" fill-opacity="1" font-family="Inconsolata,Inconsolata_MSFontService,sans-serif" font-style="normal" font-variant="normal" font-weight="400" font-stretch="normal" font-size="13" text-anchor="start" direction="ltr" writing-mode="lr-tb" unicode-bidi="normal" text-decoration="none" transform="matrix(0.539179 0 0 0.538462 127.828 132)">boolean</text></g><g><path d="M1.61538 0 111.833 0C112.725 -2.39125e-16 113.448 0.723235 113.448 1.61538L113.448 17.2308 0 17.2308 0 1.61538C-2.39125e-16 0.723235 0.723235 0 1.61538 0Z" fill="#316896" fill-rule="nonzero" fill-opacity="1" transform="matrix(1.00133 0 0 1 212.163 1.07692)"/><text fill="#FFFFFF" fill-opacity="1" font-family="Open Sans,Open Sans_MSFontService,sans-serif" font-style="normal" font-variant="normal" font-weight="700" font-stretch="normal" font-size="13" text-anchor="start" direction="ltr" writing-mode="lr-tb" unicode-bidi="normal" text-decoration="none" transform="matrix(0.539179 0 0 0.538462 217.554 11)">Profile</text></g><g><path d="M0 0 113.448 0 113.448 17.2308-2.49775e-06 17.2308Z" fill="#F2F2F2" fill-rule="nonzero" fill-opacity="1" transform="matrix(1.00133 0 0 1 212.163 18.3077)"/><text fill="#2C2C2C" fill-opacity="1" font-family="Open Sans,Open Sans_MSFontService,sans-serif" font-style="normal" font-variant="normal" font-weight="700" font-stretch="normal" font-size="13" text-anchor="start" direction="ltr" writing-mode="lr-tb" unicode-bidi="normal" text-decoration="none" transform="matrix(0.539179 0 0 0.538462 217.554 29)">id</text><path d="M3.53365 0.530062C4.41188 0.530062 5.12379 1.24196 5.12379 2.12019 5.12379 2.99842 4.41188 3.71032 3.53365 3.71032 3.32419 3.71032 3.12426 3.66978 2.94108 3.59617L2.47358 4.06372 2.12019 4.06372 2.12019 4.59378 1.59013 4.59378 1.59013 5.12379 0.530062 5.12379 0.530062 4.06372 2.01169 2.58203C1.96635 2.43228 1.94342 2.27667 1.94352 2.12019 1.94352 1.24196 2.65542 0.530062 3.53365 0.530062ZM3.53365 0C2.36277 0 1.41346 0.949146 1.41346 2.12019 1.41346 2.21771 1.42008 2.31479 1.43333 2.4108L0.0775923 3.76654C0.0279462 3.81624 0 3.88365 0 3.95392L0 5.38882C0 5.53522 0.118677 5.65385 0.265031 5.65385L1.85516 5.65385C2.00152 5.65385 2.12019 5.53522 2.12019 5.38882L2.12019 5.12379 2.38522 5.12379C2.53158 5.12379 2.65025 5.00516 2.65025 4.85875L2.65025 4.63793 3.09249 4.19435C3.23669 4.22498 3.38412 4.24039 3.53365 4.24039 4.70454 4.24039 5.65385 3.29124 5.65385 2.12019 5.65385 0.949308 4.7047 0 3.53365 0ZM3.53365 1.59013C3.53365 1.88289 3.77095 2.12019 4.06372 2.12019 4.35642 2.12019 4.59378 1.88289 4.59378 1.59013 4.59378 1.29742 4.35642 1.06012 4.06372 1.06012 3.77095 1.06012 3.53365 1.29742 3.53365 1.59013Z" fill="#2C2C2C" fill-rule="nonzero" fill-opacity="1" transform="matrix(1.00133 0 0 1 226.286 23.2885)"/><path d="M2.42839 3.4794C2.32324 3.4794 2.22436 3.43842 2.14986 3.36405 1.56152 2.77564 1.56152 1.81824 2.14986 1.22987L2.93837 0.441355C3.22293 0.156735 3.60187 -2.2956e-16 4.00542 -2.2956e-16 4.40898 -2.2956e-16 4.78791 0.156735 5.07246 0.441355 5.6608 1.02973 5.6608 1.98713 5.07246 2.5755L4.54682 3.10117C4.47245 3.17558 4.37358 3.21655 4.2683 3.21659 4.16315 3.21659 4.06428 3.17561 3.98977 3.10124 3.9154 3.02683 3.87436 2.9279 3.87436 2.82265 3.87436 2.71743 3.91539 2.6185 3.98977 2.54409L4.51541 2.01842C4.79663 1.73721 4.79663 1.27966 4.51541 0.998469 4.37948 0.86254 4.19829 0.787651 4.00542 0.787651 3.81256 0.787651 3.63136 0.86254 3.49543 0.998469L2.70692 1.78698C2.4257 2.06817 2.4257 2.52571 2.70692 2.8069 2.86054 2.96049 2.86054 3.21043 2.70692 3.36402 2.63241 3.43843 2.53354 3.4794 2.42839 3.4794ZM1.50842 5.51385C1.10487 5.51385 0.725932 5.35711 0.441388 5.07249-0.146957 4.48411-0.146957 3.52672 0.441388 2.93834L0.835714 2.54405C0.910086 2.46968 1.00909 2.4287 1.11424 2.4287 1.21939 2.4287 1.31839 2.4697 1.39276 2.54411 1.46714 2.61848 1.50818 2.71742 1.50818 2.82264 1.50818 2.92788 1.46715 3.02682 1.39276 3.10123L0.998437 3.49549C0.71722 3.77664 0.71722 4.23418 0.998437 4.51538 1.13437 4.65131 1.31556 4.7262 1.50842 4.7262 1.70129 4.7262 1.88248 4.65134 2.01841 4.51538L2.80692 3.72686C3.08814 3.44568 3.08814 2.98814 2.80692 2.70694 2.73255 2.63254 2.69151 2.5336 2.69151 2.42839 2.69151 2.32317 2.73254 2.22423 2.80692 2.14983 2.8813 2.07542 2.9803 2.03448 3.08545 2.03448 3.1906 2.03448 3.2896 2.07541 3.36397 2.1498 3.95232 2.73821 3.95232 3.6956 3.36397 4.28398L2.57546 5.07249C2.29092 5.35711 1.91198 5.51385 1.50842 5.51385Z" fill="#2C2C2C" fill-rule="nonzero" fill-opacity="1" transform="matrix(1.00133 0 0 1 234.104 23.3585)"/><text fill="#6A6A6A" fill-opacity="1" font-family="Inconsolata,Inconsolata_MSFontService,sans-serif" font-style="normal" font-variant="normal" font-weight="700" font-stretch="normal" font-size="13" text-anchor="start" direction="ltr" writing-mode="lr-tb" unicode-bidi="normal" text-decoration="none" transform="matrix(0.539179 0 0 0.538462 309.856 29)">int</text></g><g><path d="M0 0 113.448 0 113.448 17.2308-2.49775e-06 17.2308Z" fill="#F2F2F2" fill-rule="nonzero" fill-opacity="1" transform="matrix(1.00133 0 0 1 212.163 35.5385)"/><text fill="#3C3C3C" fill-opacity="1" font-family="Open Sans,Open Sans_MSFontService,sans-serif" font-style="normal" font-variant="normal" font-weight="400" font-stretch="normal" font-size="13" text-anchor="start" direction="ltr" writing-mode="lr-tb" unicode-bidi="normal" text-decoration="none" transform="matrix(0.539179 0 0 0.538462 217.554 46)">user_id</text><path d="M1.07692 0 11.8462 0C11.8462 0 12.9231 0 12.9231 1.07692L12.9231 7.53846C12.9231 7.53846 12.9231 8.61539 11.8462 8.61539L1.07692 8.61539C1.07692 8.61539 0 8.61539 0 7.53846L0 1.07692C0 1.07692 0 0 1.07692 0" fill="#DEDEDE" fill-rule="nonzero" fill-opacity="1" transform="matrix(1.00133 0 0 1 307.43 39.0385)"/><path d="M5.82142 6.73077 5.19249 6.73077 2.63515 2.66026 2.60948 2.66026C2.6159 2.76855 2.62338 2.8923 2.63195 3.03152 2.6405 3.16852 2.64692 3.31548 2.6512 3.47238 2.65761 3.62707 2.66082 3.78507 2.66082 3.94638L2.66082 6.73077 2.15385 6.73077 2.15385 1.88462 2.77954 1.88462 5.32726 5.94187 5.34972 5.94187C5.34544 5.86449 5.3401 5.75513 5.33368 5.61368 5.32726 5.47007 5.32084 5.31648 5.31443 5.15295 5.31015 4.98721 5.30801 4.83363 5.30801 4.6922L5.30801 1.88462 5.82142 1.88462 5.82142 6.73077Z" fill="#3C3C3C" fill-rule="nonzero" fill-opacity="1" transform="matrix(1.00133 0 0 1 307.43 39.0385)"/><path d="M10.7692 6.73077 10.1403 6.73077 7.58299 2.66026 7.55731 2.66026C7.56372 2.76855 7.5712 2.8923 7.57976 3.03152 7.58832 3.16852 7.59473 3.31548 7.59904 3.47238 7.60545 3.62707 7.60868 3.78507 7.60868 3.94638L7.60868 6.73077 7.10166 6.73077 7.10166 1.88462 7.72735 1.88462 10.2751 5.94187 10.2975 5.94187C10.2933 5.86449 10.2879 5.75513 10.2815 5.61368 10.2751 5.47007 10.2687 5.31648 10.2623 5.15295 10.258 4.98721 10.2559 4.83363 10.2559 4.6922L10.2559 1.88462 10.7692 1.88462 10.7692 6.73077Z" fill="#3C3C3C" fill-rule="nonzero" fill-opacity="1" transform="matrix(1.00133 0 0 1 307.43 39.0385)"/><text fill="#6A6A6A" fill-opacity="1" font-family="Inconsolata,Inconsolata_MSFontService,sans-serif" font-style="normal" font-variant="normal" font-weight="400" font-stretch="normal" font-size="13" text-anchor="start" direction="ltr" writing-mode="lr-tb" unicode-bidi="normal" text-decoration="none" transform="matrix(0.539179 0 0 0.538462 294.759 46)">int</text></g><g><path d="M0 0 113.448 0 113.448 17.2308-2.49775e-06 17.2308Z" fill="#F2F2F2" fill-rule="nonzero" fill-opacity="1" transform="matrix(1.00133 0 0 1 212.163 52.7692)"/><text fill="#3C3C3C" fill-opacity="1" font-family="Open Sans,Open Sans_MSFontService,sans-serif" font-style="normal" font-variant="normal" font-weight="400" font-stretch="normal" font-size="13" text-anchor="start" direction="ltr" writing-mode="lr-tb" unicode-bidi="normal" text-decoration="none" transform="matrix(0.539179 0 0 0.538462 217.554 63)">first_name</text><text fill="#6A6A6A" fill-opacity="1" font-family="Inconsolata,Inconsolata_MSFontService,sans-serif" font-style="normal" font-variant="normal" font-weight="400" font-stretch="normal" font-size="13" text-anchor="start" direction="ltr" writing-mode="lr-tb" unicode-bidi="normal" text-decoration="none" transform="matrix(0.539179 0 0 0.538462 281.819 63)">varchar(80)</text></g><g><path d="M0 0 113.448 0 113.448 17.2308-2.49775e-06 17.2308Z" fill="#F2F2F2" fill-rule="nonzero" fill-opacity="1" transform="matrix(1.00133 0 0 1 212.163 70)"/><text fill="#3C3C3C" fill-opacity="1" font-family="Open Sans,Open Sans_MSFontService,sans-serif" font-style="normal" font-variant="normal" font-weight="400" font-stretch="normal" font-size="13" text-anchor="start" direction="ltr" writing-mode="lr-tb" unicode-bidi="normal" text-decoration="none" transform="matrix(0.539179 0 0 0.538462 217.554 80)">last_name</text><text fill="#6A6A6A" fill-opacity="1" font-family="Inconsolata,Inconsolata_MSFontService,sans-serif" font-style="normal" font-variant="normal" font-weight="400" font-stretch="normal" font-size="13" text-anchor="start" direction="ltr" writing-mode="lr-tb" unicode-bidi="normal" text-decoration="none" transform="matrix(0.539179 0 0 0.538462 281.819 80)">varchar(80)</text></g><g><path d="M0 0 113.448 0 113.448 17.2308-2.49775e-06 17.2308Z" fill="#F2F2F2" fill-rule="nonzero" fill-opacity="1" transform="matrix(1.00133 0 0 1 212.163 87.2308)"/><text fill="#3C3C3C" fill-opacity="1" font-family="Open Sans,Open Sans_MSFontService,sans-serif" font-style="normal" font-variant="normal" font-weight="400" font-stretch="normal" font-size="13" text-anchor="start" direction="ltr" writing-mode="lr-tb" unicode-bidi="normal" text-decoration="none" transform="matrix(0.539179 0 0 0.538462 217.554 98)">phone</text><text fill="#6A6A6A" fill-opacity="1" font-family="Inconsolata,Inconsolata_MSFontService,sans-serif" font-style="normal" font-variant="normal" font-weight="400" font-stretch="normal" font-size="13" text-anchor="start" direction="ltr" writing-mode="lr-tb" unicode-bidi="normal" text-decoration="none" transform="matrix(0.539179 0 0 0.538462 281.819 98)">varchar(30)</text></g><g><path d="M0 0 113.448 0 113.448 15.6154C113.448 16.5076 112.725 17.2308 111.833 17.2308L1.61538 17.2308C0.723235 17.2308 0 16.5076 0 15.6154Z" fill="#F2F2F2" fill-rule="nonzero" fill-opacity="1" transform="matrix(1.00133 0 0 1 212.163 104.462)"/><text fill="#3C3C3C" fill-opacity="1" font-family="Open Sans,Open Sans_MSFontService,sans-serif" font-style="normal" font-variant="normal" font-weight="400" font-stretch="normal" font-size="13" text-anchor="start" direction="ltr" writing-mode="lr-tb" unicode-bidi="normal" text-decoration="none" transform="matrix(0.539179 0 0 0.538462 217.554 115)">address</text><text fill="#6A6A6A" fill-opacity="1" font-family="Inconsolata,Inconsolata_MSFontService,sans-serif" font-style="normal" font-variant="normal" font-weight="400" font-stretch="normal" font-size="13" text-anchor="start" direction="ltr" writing-mode="lr-tb" unicode-bidi="normal" text-decoration="none" transform="matrix(0.539179 0 0 0.538462 306.351 115)">text</text></g><g><path d="M1.61538 0 173.725 0C174.618 -2.39125e-16 175.341 0.723235 175.341 1.61538L175.341 17.2308 0 17.2308 0 1.61538C-2.39125e-16 0.723235 0.723235 0 1.61538 0Z" fill="#316896" fill-rule="nonzero" fill-opacity="1" transform="matrix(1.00133 0 0 1 401.707 40.7453)"/><text fill="#FFFFFF" fill-opacity="1" font-family="Open Sans,Open Sans_MSFontService,sans-serif" font-style="normal" font-variant="normal" font-weight="700" font-stretch="normal" font-size="13" text-anchor="start" direction="ltr" writing-mode="lr-tb" unicode-bidi="normal" text-decoration="none" transform="matrix(0.539179 0 0 0.538462 407.099 51)">ClientPreference</text></g><g><path d="M0 0 175.341 0 175.341 17.2308-2.36629e-06 17.2308Z" fill="#F2F2F2" fill-rule="nonzero" fill-opacity="1" transform="matrix(1.00133 0 0 1 401.707 57.9762)"/><text fill="#2C2C2C" fill-opacity="1" font-family="Open Sans,Open Sans_MSFontService,sans-serif" font-style="normal" font-variant="normal" font-weight="700" font-stretch="normal" font-size="13" text-anchor="start" direction="ltr" writing-mode="lr-tb" unicode-bidi="normal" text-decoration="none" transform="matrix(0.539179 0 0 0.538462 407.099 68)">id</text><path d="M3.53365 0.530062C4.41188 0.530062 5.12379 1.24196 5.12379 2.12019 5.12379 2.99842 4.41188 3.71032 3.53365 3.71032 3.32419 3.71032 3.12426 3.66978 2.94108 3.59617L2.47358 4.06372 2.12019 4.06372 2.12019 4.59378 1.59013 4.59378 1.59013 5.12379 0.530062 5.12379 0.530062 4.06372 2.01169 2.58203C1.96635 2.43228 1.94342 2.27667 1.94352 2.12019 1.94352 1.24196 2.65542 0.530062 3.53365 0.530062ZM3.53365 0C2.36277 0 1.41346 0.949146 1.41346 2.12019 1.41346 2.21771 1.42008 2.31479 1.43333 2.4108L0.0775923 3.76654C0.0279462 3.81624 0 3.88365 0 3.95392L0 5.38882C0 5.53522 0.118677 5.65385 0.265031 5.65385L1.85516 5.65385C2.00152 5.65385 2.12019 5.53522 2.12019 5.38882L2.12019 5.12379 2.38522 5.12379C2.53158 5.12379 2.65025 5.00516 2.65025 4.85875L2.65025 4.63793 3.09249 4.19435C3.23669 4.22498 3.38412 4.24039 3.53365 4.24039 4.70454 4.24039 5.65385 3.29124 5.65385 2.12019 5.65385 0.949308 4.7047 0 3.53365 0ZM3.53365 1.59013C3.53365 1.88289 3.77095 2.12019 4.06372 2.12019 4.35642 2.12019 4.59378 1.88289 4.59378 1.59013 4.59378 1.29742 4.35642 1.06012 4.06372 1.06012 3.77095 1.06012 3.53365 1.29742 3.53365 1.59013Z" fill="#2C2C2C" fill-rule="nonzero" fill-opacity="1" transform="matrix(1.00133 0 0 1 415.83 62.9569)"/><text fill="#6A6A6A" fill-opacity="1" font-family="Inconsolata,Inconsolata_MSFontService,sans-serif" font-style="normal" font-variant="normal" font-weight="700" font-stretch="normal" font-size="13" text-anchor="start" direction="ltr" writing-mode="lr-tb" unicode-bidi="normal" text-decoration="none" transform="matrix(0.539179 0 0 0.538462 561.375 68)">int</text></g><g><path d="M0 0 175.341 0 175.341 17.2308-2.36629e-06 17.2308Z" fill="#F2F2F2" fill-rule="nonzero" fill-opacity="1" transform="matrix(1.00133 0 0 1 401.707 75.2069)"/><text fill="#3C3C3C" fill-opacity="1" font-family="Open Sans,Open Sans_MSFontService,sans-serif" font-style="normal" font-variant="normal" font-weight="400" font-stretch="normal" font-size="13" text-anchor="start" direction="ltr" writing-mode="lr-tb" unicode-bidi="normal" text-decoration="none" transform="matrix(0.539179 0 0 0.538462 407.099 86)">profile_id</text><path d="M1.07692 0 11.8462 0C11.8462 0 12.9231 0 12.9231 1.07692L12.9231 7.53846C12.9231 7.53846 12.9231 8.61539 11.8462 8.61539L1.07692 8.61539C1.07692 8.61539 0 8.61539 0 7.53846L0 1.07692C0 1.07692 0 0 1.07692 0" fill="#DEDEDE" fill-rule="nonzero" fill-opacity="1" transform="matrix(1.00133 0 0 1 558.949 78.7069)"/><path d="M5.82142 6.73077 5.19249 6.73077 2.63515 2.66026 2.60948 2.66026C2.6159 2.76855 2.62338 2.8923 2.63195 3.03152 2.6405 3.16852 2.64692 3.31548 2.6512 3.47238 2.65761 3.62707 2.66082 3.78507 2.66082 3.94638L2.66082 6.73077 2.15385 6.73077 2.15385 1.88462 2.77954 1.88462 5.32726 5.94187 5.34972 5.94187C5.34544 5.86449 5.3401 5.75513 5.33368 5.61368 5.32726 5.47007 5.32084 5.31648 5.31443 5.15295 5.31015 4.98721 5.30801 4.83363 5.30801 4.6922L5.30801 1.88462 5.82142 1.88462 5.82142 6.73077Z" fill="#3C3C3C" fill-rule="nonzero" fill-opacity="1" transform="matrix(1.00133 0 0 1 558.949 78.7069)"/><path d="M10.7692 6.73077 10.1403 6.73077 7.58299 2.66026 7.55731 2.66026C7.56372 2.76855 7.5712 2.8923 7.57976 3.03152 7.58832 3.16852 7.59473 3.31548 7.59904 3.47238 7.60545 3.62707 7.60868 3.78507 7.60868 3.94638L7.60868 6.73077 7.10166 6.73077 7.10166 1.88462 7.72735 1.88462 10.2751 5.94187 10.2975 5.94187C10.2933 5.86449 10.2879 5.75513 10.2815 5.61368 10.2751 5.47007 10.2687 5.31648 10.2623 5.15295 10.258 4.98721 10.2559 4.83363 10.2559 4.6922L10.2559 1.88462 10.7692 1.88462 10.7692 6.73077Z" fill="#3C3C3C" fill-rule="nonzero" fill-opacity="1" transform="matrix(1.00133 0 0 1 558.949 78.7069)"/><text fill="#6A6A6A" fill-opacity="1" font-family="Inconsolata,Inconsolata_MSFontService,sans-serif" font-style="normal" font-variant="normal" font-weight="400" font-stretch="normal" font-size="13" text-anchor="start" direction="ltr" writing-mode="lr-tb" unicode-bidi="normal" text-decoration="none" transform="matrix(0.539179 0 0 0.538462 546.279 86)">int</text></g><g><path d="M0 0 175.341 0 175.341 17.2308-2.36629e-06 17.2308Z" fill="#F2F2F2" fill-rule="nonzero" fill-opacity="1" transform="matrix(1.00133 0 0 1 401.707 92.4377)"/><text fill="#3C3C3C" fill-opacity="1" font-family="Open Sans,Open Sans_MSFontService,sans-serif" font-style="normal" font-variant="normal" font-weight="400" font-stretch="normal" font-size="13" text-anchor="start" direction="ltr" writing-mode="lr-tb" unicode-bidi="normal" text-decoration="none" transform="matrix(0.539179 0 0 0.538462 407.099 103)">preferred_travel_style</text><text fill="#6A6A6A" fill-opacity="1" font-family="Inconsolata,Inconsolata_MSFontService,sans-serif" font-style="normal" font-variant="normal" font-weight="400" font-stretch="normal" font-size="13" text-anchor="start" direction="ltr" writing-mode="lr-tb" unicode-bidi="normal" text-decoration="none" transform="matrix(0.539179 0 0 0.538462 533.338 103)">varchar(80)</text></g><g><path d="M0 0 175.341 0 175.341 17.2308-2.36629e-06 17.2308Z" fill="#F2F2F2" fill-rule="nonzero" fill-opacity="1" transform="matrix(1.00133 0 0 1 401.707 109.668)"/><text fill="#3C3C3C" fill-opacity="1" font-family="Open Sans,Open Sans_MSFontService,sans-serif" font-style="normal" font-variant="normal" font-weight="400" font-stretch="normal" font-size="13" text-anchor="start" direction="ltr" writing-mode="lr-tb" unicode-bidi="normal" text-decoration="none" transform="matrix(0.539179 0 0 0.538462 407.099 120)">diet</text><text fill="#6A6A6A" fill-opacity="1" font-family="Inconsolata,Inconsolata_MSFontService,sans-serif" font-style="normal" font-variant="normal" font-weight="400" font-stretch="normal" font-size="13" text-anchor="start" direction="ltr" writing-mode="lr-tb" unicode-bidi="normal" text-decoration="none" transform="matrix(0.539179 0 0 0.538462 557.871 120)">text</text></g><g><path d="M0 0 175.341 0 175.341 17.2308-2.36629e-06 17.2308Z" fill="#F2F2F2" fill-rule="nonzero" fill-opacity="1" transform="matrix(1.00133 0 0 1 401.707 126.899)"/><text fill="#3C3C3C" fill-opacity="1" font-family="Open Sans,Open Sans_MSFontService,sans-serif" font-style="normal" font-variant="normal" font-weight="400" font-stretch="normal" font-size="13" text-anchor="start" direction="ltr" writing-mode="lr-tb" unicode-bidi="normal" text-decoration="none" transform="matrix(0.539179 0 0 0.538462 407.099 137)">mobility_needs</text><text fill="#6A6A6A" fill-opacity="1" font-family="Inconsolata,Inconsolata_MSFontService,sans-serif" font-style="normal" font-variant="normal" font-weight="400" font-stretch="normal" font-size="13" text-anchor="start" direction="ltr" writing-mode="lr-tb" unicode-bidi="normal" text-decoration="none" transform="matrix(0.539179 0 0 0.538462 547.357 137)">boolean</text></g><g><path d="M0 0 175.341 0 175.341 17.2308-2.36629e-06 17.2308Z" fill="#F2F2F2" fill-rule="nonzero" fill-opacity="1" transform="matrix(1.00133 0 0 1 401.707 144.13)"/><text fill="#3C3C3C" fill-opacity="1" font-family="Open Sans,Open Sans_MSFontService,sans-serif" font-style="normal" font-variant="normal" font-weight="400" font-stretch="normal" font-size="13" text-anchor="start" direction="ltr" writing-mode="lr-tb" unicode-bidi="normal" text-decoration="none" transform="matrix(0.539179 0 0 0.538462 407.099 154)">noise_tolerance</text><text fill="#6A6A6A" fill-opacity="1" font-family="Inconsolata,Inconsolata_MSFontService,sans-serif" font-style="normal" font-variant="normal" font-weight="400" font-stretch="normal" font-size="13" text-anchor="start" direction="ltr" writing-mode="lr-tb" unicode-bidi="normal" text-decoration="none" transform="matrix(0.539179 0 0 0.538462 533.338 154)">varchar(80)</text></g><g><path d="M0 0 175.341 0 175.341 17.2308-2.36629e-06 17.2308Z" fill="#F2F2F2" fill-rule="nonzero" fill-opacity="1" transform="matrix(1.00133 0 0 1 401.707 161.361)"/><text fill="#3C3C3C" fill-opacity="1" font-family="Open Sans,Open Sans_MSFontService,sans-serif" font-style="normal" font-variant="normal" font-weight="400" font-stretch="normal" font-size="13" text-anchor="start" direction="ltr" writing-mode="lr-tb" unicode-bidi="normal" text-decoration="none" transform="matrix(0.539179 0 0 0.538462 407.099 172)">interests</text><text fill="#6A6A6A" fill-opacity="1" font-family="Inconsolata,Inconsolata_MSFontService,sans-serif" font-style="normal" font-variant="normal" font-weight="400" font-stretch="normal" font-size="13" text-anchor="start" direction="ltr" writing-mode="lr-tb" unicode-bidi="normal" text-decoration="none" transform="matrix(0.539179 0 0 0.538462 557.871 172)">text</text></g><g><path d="M0 0 175.341 0 175.341 17.2308-2.36629e-06 17.2308Z" fill="#F2F2F2" fill-rule="nonzero" fill-opacity="1" transform="matrix(1.00133 0 0 1 401.707 178.592)"/><text fill="#3C3C3C" fill-opacity="1" font-family="Open Sans,Open Sans_MSFontService,sans-serif" font-style="normal" font-variant="normal" font-weight="400" font-stretch="normal" font-size="13" text-anchor="start" direction="ltr" writing-mode="lr-tb" unicode-bidi="normal" text-decoration="none" transform="matrix(0.539179 0 0 0.538462 407.099 189)">room_location</text><text fill="#6A6A6A" fill-opacity="1" font-family="Inconsolata,Inconsolata_MSFontService,sans-serif" font-style="normal" font-variant="normal" font-weight="400" font-stretch="normal" font-size="13" text-anchor="start" direction="ltr" writing-mode="lr-tb" unicode-bidi="normal" text-decoration="none" transform="matrix(0.539179 0 0 0.538462 533.338 189)">varchar(80)</text></g><g><path d="M0 0 175.341 0 175.341 17.2308-2.36629e-06 17.2308Z" fill="#F2F2F2" fill-rule="nonzero" fill-opacity="1" transform="matrix(1.00133 0 0 1 401.707 195.822)"/><text fill="#3C3C3C" fill-opacity="1" font-family="Open Sans,Open Sans_MSFontService,sans-serif" font-style="normal" font-variant="normal" font-weight="400" font-stretch="normal" font-size="13" text-anchor="start" direction="ltr" writing-mode="lr-tb" unicode-bidi="normal" text-decoration="none" transform="matrix(0.539179 0 0 0.538462 407.099 206)">bed_preference</text><text fill="#6A6A6A" fill-opacity="1" font-family="Inconsolata,Inconsolata_MSFontService,sans-serif" font-style="normal" font-variant="normal" font-weight="400" font-stretch="normal" font-size="13" text-anchor="start" direction="ltr" writing-mode="lr-tb" unicode-bidi="normal" text-decoration="none" transform="matrix(0.539179 0 0 0.538462 533.338 206)">varchar(80)</text></g><g><path d="M0 0 175.341 0 175.341 17.2308-2.36629e-06 17.2308Z" fill="#F2F2F2" fill-rule="nonzero" fill-opacity="1" transform="matrix(1.00133 0 0 1 401.707 213.053)"/><text fill="#3C3C3C" fill-opacity="1" font-family="Open Sans,Open Sans_MSFontService,sans-serif" font-style="normal" font-variant="normal" font-weight="400" font-stretch="normal" font-size="13" text-anchor="start" direction="ltr" writing-mode="lr-tb" unicode-bidi="normal" text-decoration="none" transform="matrix(0.539179 0 0 0.538462 407.099 223)">seat_preference</text><text fill="#6A6A6A" fill-opacity="1" font-family="Inconsolata,Inconsolata_MSFontService,sans-serif" font-style="normal" font-variant="normal" font-weight="400" font-stretch="normal" font-size="13" text-anchor="start" direction="ltr" writing-mode="lr-tb" unicode-bidi="normal" text-decoration="none" transform="matrix(0.539179 0 0 0.538462 533.338 223)">varchar(80)</text></g><g><path d="M0 0 175.341 0 175.341 17.2308-2.36629e-06 17.2308Z" fill="#F2F2F2" fill-rule="nonzero" fill-opacity="1" transform="matrix(1.00133 0 0 1 401.707 230.284)"/><text fill="#3C3C3C" fill-opacity="1" font-family="Open Sans,Open Sans_MSFontService,sans-serif" font-style="normal" font-variant="normal" font-weight="400" font-stretch="normal" font-size="13" text-anchor="start" direction="ltr" writing-mode="lr-tb" unicode-bidi="normal" text-decoration="none" transform="matrix(0.539179 0 0 0.538462 407.099 241)">preferred_departure_airport</text><text fill="#6A6A6A" fill-opacity="1" font-family="Inconsolata,Inconsolata_MSFontService,sans-serif" font-style="normal" font-variant="normal" font-weight="400" font-stretch="normal" font-size="13" text-anchor="start" direction="ltr" writing-mode="lr-tb" unicode-bidi="normal" text-decoration="none" transform="matrix(0.539179 0 0 0.538462 533.338 241)">varchar(80)</text></g><g><path d="M0 0 175.341 0 175.341 17.2308-2.36629e-06 17.2308Z" fill="#F2F2F2" fill-rule="nonzero" fill-opacity="1" transform="matrix(1.00133 0 0 1 401.707 247.515)"/><text fill="#3C3C3C" fill-opacity="1" font-family="Open Sans,Open Sans_MSFontService,sans-serif" font-style="normal" font-variant="normal" font-weight="400" font-stretch="normal" font-size="13" text-anchor="start" direction="ltr" writing-mode="lr-tb" unicode-bidi="normal" text-decoration="none" transform="matrix(0.539179 0 0 0.538462 407.099 258)">special_notes</text><text fill="#6A6A6A" fill-opacity="1" font-family="Inconsolata,Inconsolata_MSFontService,sans-serif" font-style="normal" font-variant="normal" font-weight="400" font-stretch="normal" font-size="13" text-anchor="start" direction="ltr" writing-mode="lr-tb" unicode-bidi="normal" text-decoration="none" transform="matrix(0.539179 0 0 0.538462 557.871 258)">text</text></g><g><path d="M0 0 175.341 0 175.341 17.2308-2.36629e-06 17.2308Z" fill="#F2F2F2" fill-rule="nonzero" fill-opacity="1" transform="matrix(1.00133 0 0 1 401.707 264.745)"/><text fill="#3C3C3C" fill-opacity="1" font-family="Open Sans,Open Sans_MSFontService,sans-serif" font-style="normal" font-variant="normal" font-weight="400" font-stretch="normal" font-size="13" text-anchor="start" direction="ltr" writing-mode="lr-tb" unicode-bidi="normal" text-decoration="none" transform="matrix(0.539179 0 0 0.538462 407.099 275)">created_at</text><path d="M1.07692 0 11.8462 0C11.8462 0 12.9231 0 12.9231 1.07692L12.9231 7.53846C12.9231 7.53846 12.9231 8.61539 11.8462 8.61539L1.07692 8.61539C1.07692 8.61539 0 8.61539 0 7.53846L0 1.07692C0 1.07692 0 0 1.07692 0" fill="#DEDEDE" fill-rule="nonzero" fill-opacity="1" transform="matrix(1.00133 0 0 1 558.949 268.245)"/><path d="M5.82142 6.73077 5.19249 6.73077 2.63515 2.66026 2.60948 2.66026C2.6159 2.76855 2.62338 2.8923 2.63195 3.03152 2.6405 3.16852 2.64692 3.31548 2.6512 3.47238 2.65761 3.62707 2.66082 3.78507 2.66082 3.94638L2.66082 6.73077 2.15385 6.73077 2.15385 1.88462 2.77954 1.88462 5.32726 5.94187 5.34972 5.94187C5.34544 5.86449 5.3401 5.75513 5.33368 5.61368 5.32726 5.47007 5.32084 5.31648 5.31443 5.15295 5.31015 4.98721 5.30801 4.83363 5.30801 4.6922L5.30801 1.88462 5.82142 1.88462 5.82142 6.73077Z" fill="#3C3C3C" fill-rule="nonzero" fill-opacity="1" transform="matrix(1.00133 0 0 1 558.949 268.245)"/><path d="M10.7692 6.73077 10.1403 6.73077 7.58299 2.66026 7.55731 2.66026C7.56372 2.76855 7.5712 2.8923 7.57976 3.03152 7.58832 3.16852 7.59473 3.31548 7.59904 3.47238 7.60545 3.62707 7.60868 3.78507 7.60868 3.94638L7.60868 6.73077 7.10166 6.73077 7.10166 1.88462 7.72735 1.88462 10.2751 5.94187 10.2975 5.94187C10.2933 5.86449 10.2879 5.75513 10.2815 5.61368 10.2751 5.47007 10.2687 5.31648 10.2623 5.15295 10.258 4.98721 10.2559 4.83363 10.2559 4.6922L10.2559 1.88462 10.7692 1.88462 10.7692 6.73077Z" fill="#3C3C3C" fill-rule="nonzero" fill-opacity="1" transform="matrix(1.00133 0 0 1 558.949 268.245)"/><text fill="#6A6A6A" fill-opacity="1" font-family="Inconsolata,Inconsolata_MSFontService,sans-serif" font-style="normal" font-variant="normal" font-weight="400" font-stretch="normal" font-size="13" text-anchor="start" direction="ltr" writing-mode="lr-tb" unicode-bidi="normal" text-decoration="none" transform="matrix(0.539179 0 0 0.538462 528.755 275)">datetime</text></g><g><path d="M0 0 175.341 0 175.341 15.6154C175.341 16.5076 174.618 17.2308 173.725 17.2308L1.61538 17.2308C0.723235 17.2308 0 16.5076 0 15.6154Z" fill="#F2F2F2" fill-rule="nonzero" fill-opacity="1" transform="matrix(1.00133 0 0 1 401.707 281.976)"/><text fill="#3C3C3C" fill-opacity="1" font-family="Open Sans,Open Sans_MSFontService,sans-serif" font-style="normal" font-variant="normal" font-weight="400" font-stretch="normal" font-size="13" text-anchor="start" direction="ltr" writing-mode="lr-tb" unicode-bidi="normal" text-decoration="none" transform="matrix(0.539179 0 0 0.538462 407.099 292)">updated_at</text><path d="M1.07692 0 11.8462 0C11.8462 0 12.9231 0 12.9231 1.07692L12.9231 7.53846C12.9231 7.53846 12.9231 8.61539 11.8462 8.61539L1.07692 8.61539C1.07692 8.61539 0 8.61539 0 7.53846L0 1.07692C0 1.07692 0 0 1.07692 0" fill="#DEDEDE" fill-rule="nonzero" fill-opacity="1" transform="matrix(1.00133 0 0 1 558.949 285.476)"/><path d="M5.82142 6.73077 5.19249 6.73077 2.63515 2.66026 2.60948 2.66026C2.6159 2.76855 2.62338 2.8923 2.63195 3.03152 2.6405 3.16852 2.64692 3.31548 2.6512 3.47238 2.65761 3.62707 2.66082 3.78507 2.66082 3.94638L2.66082 6.73077 2.15385 6.73077 2.15385 1.88462 2.77954 1.88462 5.32726 5.94187 5.34972 5.94187C5.34544 5.86449 5.3401 5.75513 5.33368 5.61368 5.32726 5.47007 5.32084 5.31648 5.31443 5.15295 5.31015 4.98721 5.30801 4.83363 5.30801 4.6922L5.30801 1.88462 5.82142 1.88462 5.82142 6.73077Z" fill="#3C3C3C" fill-rule="nonzero" fill-opacity="1" transform="matrix(1.00133 0 0 1 558.949 285.476)"/><path d="M10.7692 6.73077 10.1403 6.73077 7.58299 2.66026 7.55731 2.66026C7.56372 2.76855 7.5712 2.8923 7.57976 3.03152 7.58832 3.16852 7.59473 3.31548 7.59904 3.47238 7.60545 3.62707 7.60868 3.78507 7.60868 3.94638L7.60868 6.73077 7.10166 6.73077 7.10166 1.88462 7.72735 1.88462 10.2751 5.94187 10.2975 5.94187C10.2933 5.86449 10.2879 5.75513 10.2815 5.61368 10.2751 5.47007 10.2687 5.31648 10.2623 5.15295 10.258 4.98721 10.2559 4.83363 10.2559 4.6922L10.2559 1.88462 10.7692 1.88462 10.7692 6.73077Z" fill="#3C3C3C" fill-rule="nonzero" fill-opacity="1" transform="matrix(1.00133 0 0 1 558.949 285.476)"/><text fill="#6A6A6A" fill-opacity="1" font-family="Inconsolata,Inconsolata_MSFontService,sans-serif" font-style="normal" font-variant="normal" font-weight="400" font-stretch="normal" font-size="13" text-anchor="start" direction="ltr" writing-mode="lr-tb" unicode-bidi="normal" text-decoration="none" transform="matrix(0.539179 0 0 0.538462 528.755 292)">datetime</text></g><g><path d="M1.61538 0 135.48 0C136.372 -2.39125e-16 137.096 0.723235 137.096 1.61538L137.096 17.2308 0 17.2308 0 1.61538C-2.39125e-16 0.723235 0.723235 0 1.61538 0Z" fill="#316896" fill-rule="nonzero" fill-opacity="1" transform="matrix(1.00133 0 0 1 41.2434 153.271)"/><text fill="#FFFFFF" fill-opacity="1" font-family="Open Sans,Open Sans_MSFontService,sans-serif" font-style="normal" font-variant="normal" font-weight="700" font-stretch="normal" font-size="13" text-anchor="start" direction="ltr" writing-mode="lr-tb" unicode-bidi="normal" text-decoration="none" transform="matrix(0.539179 0 0 0.538462 46.6352 164)">PersonalizationRequest</text></g><g><path d="M0 0 137.096 0 137.096 17.2308 1.51179e-06 17.2308Z" fill="#F2F2F2" fill-rule="nonzero" fill-opacity="1" transform="matrix(1.00133 0 0 1 41.2434 170.502)"/><text fill="#2C2C2C" fill-opacity="1" font-family="Open Sans,Open Sans_MSFontService,sans-serif" font-style="normal" font-variant="normal" font-weight="700" font-stretch="normal" font-size="13" text-anchor="start" direction="ltr" writing-mode="lr-tb" unicode-bidi="normal" text-decoration="none" transform="matrix(0.539179 0 0 0.538462 46.6352 181)">id</text><path d="M3.53365 0.530062C4.41188 0.530062 5.12379 1.24196 5.12379 2.12019 5.12379 2.99842 4.41188 3.71032 3.53365 3.71032 3.32419 3.71032 3.12426 3.66978 2.94108 3.59617L2.47358 4.06372 2.12019 4.06372 2.12019 4.59378 1.59013 4.59378 1.59013 5.12379 0.530062 5.12379 0.530062 4.06372 2.01169 2.58203C1.96635 2.43228 1.94342 2.27667 1.94352 2.12019 1.94352 1.24196 2.65542 0.530062 3.53365 0.530062ZM3.53365 0C2.36277 0 1.41346 0.949146 1.41346 2.12019 1.41346 2.21771 1.42008 2.31479 1.43333 2.4108L0.0775923 3.76654C0.0279462 3.81624 0 3.88365 0 3.95392L0 5.38882C0 5.53522 0.118677 5.65385 0.265031 5.65385L1.85516 5.65385C2.00152 5.65385 2.12019 5.53522 2.12019 5.38882L2.12019 5.12379 2.38522 5.12379C2.53158 5.12379 2.65025 5.00516 2.65025 4.85875L2.65025 4.63793 3.09249 4.19435C3.23669 4.22498 3.38412 4.24039 3.53365 4.24039 4.70454 4.24039 5.65385 3.29124 5.65385 2.12019 5.65385 0.949308 4.7047 0 3.53365 0ZM3.53365 1.59013C3.53365 1.88289 3.77095 2.12019 4.06372 2.12019 4.35642 2.12019 4.59378 1.88289 4.59378 1.59013 4.59378 1.29742 4.35642 1.06012 4.06372 1.06012 3.77095 1.06012 3.53365 1.29742 3.53365 1.59013Z" fill="#2C2C2C" fill-rule="nonzero" fill-opacity="1" transform="matrix(1.00133 0 0 1 55.3665 175.483)"/><path d="M2.42839 3.4794C2.32324 3.4794 2.22436 3.43842 2.14986 3.36405 1.56152 2.77564 1.56152 1.81824 2.14986 1.22987L2.93837 0.441355C3.22293 0.156735 3.60187 -2.2956e-16 4.00542 -2.2956e-16 4.40898 -2.2956e-16 4.78791 0.156735 5.07246 0.441355 5.6608 1.02973 5.6608 1.98713 5.07246 2.5755L4.54682 3.10117C4.47245 3.17558 4.37358 3.21655 4.2683 3.21659 4.16315 3.21659 4.06428 3.17561 3.98977 3.10124 3.9154 3.02683 3.87436 2.9279 3.87436 2.82265 3.87436 2.71743 3.91539 2.6185 3.98977 2.54409L4.51541 2.01842C4.79663 1.73721 4.79663 1.27966 4.51541 0.998469 4.37948 0.86254 4.19829 0.787651 4.00542 0.787651 3.81256 0.787651 3.63136 0.86254 3.49543 0.998469L2.70692 1.78698C2.4257 2.06817 2.4257 2.52571 2.70692 2.8069 2.86054 2.96049 2.86054 3.21043 2.70692 3.36402 2.63241 3.43843 2.53354 3.4794 2.42839 3.4794ZM1.50842 5.51385C1.10487 5.51385 0.725932 5.35711 0.441388 5.07249-0.146957 4.48411-0.146957 3.52672 0.441388 2.93834L0.835714 2.54405C0.910086 2.46968 1.00909 2.4287 1.11424 2.4287 1.21939 2.4287 1.31839 2.4697 1.39276 2.54411 1.46714 2.61848 1.50818 2.71742 1.50818 2.82264 1.50818 2.92788 1.46715 3.02682 1.39276 3.10123L0.998437 3.49549C0.71722 3.77664 0.71722 4.23418 0.998437 4.51538 1.13437 4.65131 1.31556 4.7262 1.50842 4.7262 1.70129 4.7262 1.88248 4.65134 2.01841 4.51538L2.80692 3.72686C3.08814 3.44568 3.08814 2.98814 2.80692 2.70694 2.73255 2.63254 2.69151 2.5336 2.69151 2.42839 2.69151 2.32317 2.73254 2.22423 2.80692 2.14983 2.8813 2.07542 2.9803 2.03448 3.08545 2.03448 3.1906 2.03448 3.2896 2.07541 3.36397 2.1498 3.95232 2.73821 3.95232 3.6956 3.36397 4.28398L2.57546 5.07249C2.29092 5.35711 1.91198 5.51385 1.50842 5.51385Z" fill="#2C2C2C" fill-rule="nonzero" fill-opacity="1" transform="matrix(1.00133 0 0 1 63.1846 175.553)"/><text fill="#6A6A6A" fill-opacity="1" font-family="Inconsolata,Inconsolata_MSFontService,sans-serif" font-style="normal" font-variant="normal" font-weight="700" font-stretch="normal" font-size="13" text-anchor="start" direction="ltr" writing-mode="lr-tb" unicode-bidi="normal" text-decoration="none" transform="matrix(0.539179 0 0 0.538462 162.616 181)">int</text></g><g><path d="M0 0 137.096 0 137.096 17.2308 1.51179e-06 17.2308Z" fill="#F2F2F2" fill-rule="nonzero" fill-opacity="1" transform="matrix(1.00133 0 0 1 41.2434 187.733)"/><text fill="#3C3C3C" fill-opacity="1" font-family="Open Sans,Open Sans_MSFontService,sans-serif" font-style="normal" font-variant="normal" font-weight="400" font-stretch="normal" font-size="13" text-anchor="start" direction="ltr" writing-mode="lr-tb" unicode-bidi="normal" text-decoration="none" transform="matrix(0.539179 0 0 0.538462 46.6352 198)">user_id</text><path d="M2.42839 3.4794C2.32324 3.4794 2.22436 3.43842 2.14986 3.36405 1.56152 2.77564 1.56152 1.81824 2.14986 1.22987L2.93837 0.441355C3.22293 0.156735 3.60187 -2.2956e-16 4.00542 -2.2956e-16 4.40898 -2.2956e-16 4.78791 0.156735 5.07246 0.441355 5.6608 1.02973 5.6608 1.98713 5.07246 2.5755L4.54682 3.10117C4.47245 3.17558 4.37358 3.21655 4.2683 3.21659 4.16315 3.21659 4.06428 3.17561 3.98977 3.10124 3.9154 3.02683 3.87436 2.9279 3.87436 2.82265 3.87436 2.71743 3.91539 2.6185 3.98977 2.54409L4.51541 2.01842C4.79663 1.73721 4.79663 1.27966 4.51541 0.998469 4.37948 0.86254 4.19829 0.787651 4.00542 0.787651 3.81256 0.787651 3.63136 0.86254 3.49543 0.998469L2.70692 1.78698C2.4257 2.06817 2.4257 2.52571 2.70692 2.8069 2.86054 2.96049 2.86054 3.21043 2.70692 3.36402 2.63241 3.43843 2.53354 3.4794 2.42839 3.4794ZM1.50842 5.51385C1.10487 5.51385 0.725932 5.35711 0.441388 5.07249-0.146957 4.48411-0.146957 3.52672 0.441388 2.93834L0.835714 2.54405C0.910086 2.46968 1.00909 2.4287 1.11424 2.4287 1.21939 2.4287 1.31839 2.4697 1.39276 2.54411 1.46714 2.61848 1.50818 2.71742 1.50818 2.82264 1.50818 2.92788 1.46715 3.02682 1.39276 3.10123L0.998437 3.49549C0.71722 3.77664 0.71722 4.23418 0.998437 4.51538 1.13437 4.65131 1.31556 4.7262 1.50842 4.7262 1.70129 4.7262 1.88248 4.65134 2.01841 4.51538L2.80692 3.72686C3.08814 3.44568 3.08814 2.98814 2.80692 2.70694 2.73255 2.63254 2.69151 2.5336 2.69151 2.42839 2.69151 2.32317 2.73254 2.22423 2.80692 2.14983 2.8813 2.07542 2.9803 2.03448 3.08545 2.03448 3.1906 2.03448 3.2896 2.07541 3.36397 2.1498 3.95232 2.73821 3.95232 3.6956 3.36397 4.28398L2.57546 5.07249C2.29092 5.35711 1.91198 5.51385 1.50842 5.51385Z" fill="#3C3C3C" fill-rule="nonzero" fill-opacity="1" transform="matrix(1.00133 0 0 1 72.3594 192.784)"/><path d="M1.07692 0 11.8462 0C11.8462 0 12.9231 0 12.9231 1.07692L12.9231 7.53846C12.9231 7.53846 12.9231 8.61539 11.8462 8.61539L1.07692 8.61539C1.07692 8.61539 0 8.61539 0 7.53846L0 1.07692C0 1.07692 0 0 1.07692 0" fill="#DEDEDE" fill-rule="nonzero" fill-opacity="1" transform="matrix(1.00133 0 0 1 160.19 191.233)"/><path d="M5.82142 6.73077 5.19249 6.73077 2.63515 2.66026 2.60948 2.66026C2.6159 2.76855 2.62338 2.8923 2.63195 3.03152 2.6405 3.16852 2.64692 3.31548 2.6512 3.47238 2.65761 3.62707 2.66082 3.78507 2.66082 3.94638L2.66082 6.73077 2.15385 6.73077 2.15385 1.88462 2.77954 1.88462 5.32726 5.94187 5.34972 5.94187C5.34544 5.86449 5.3401 5.75513 5.33368 5.61368 5.32726 5.47007 5.32084 5.31648 5.31443 5.15295 5.31015 4.98721 5.30801 4.83363 5.30801 4.6922L5.30801 1.88462 5.82142 1.88462 5.82142 6.73077Z" fill="#3C3C3C" fill-rule="nonzero" fill-opacity="1" transform="matrix(1.00133 0 0 1 160.19 191.233)"/><path d="M10.7692 6.73077 10.1403 6.73077 7.58299 2.66026 7.55731 2.66026C7.56372 2.76855 7.5712 2.8923 7.57976 3.03152 7.58832 3.16852 7.59473 3.31548 7.59904 3.47238 7.60545 3.62707 7.60868 3.78507 7.60868 3.94638L7.60868 6.73077 7.10166 6.73077 7.10166 1.88462 7.72735 1.88462 10.2751 5.94187 10.2975 5.94187C10.2933 5.86449 10.2879 5.75513 10.2815 5.61368 10.2751 5.47007 10.2687 5.31648 10.2623 5.15295 10.258 4.98721 10.2559 4.83363 10.2559 4.6922L10.2559 1.88462 10.7692 1.88462 10.7692 6.73077Z" fill="#3C3C3C" fill-rule="nonzero" fill-opacity="1" transform="matrix(1.00133 0 0 1 160.19 191.233)"/><text fill="#6A6A6A" fill-opacity="1" font-family="Inconsolata,Inconsolata_MSFontService,sans-serif" font-style="normal" font-variant="normal" font-weight="400" font-stretch="normal" font-size="13" text-anchor="start" direction="ltr" writing-mode="lr-tb" unicode-bidi="normal" text-decoration="none" transform="matrix(0.539179 0 0 0.538462 147.519 198)">int</text></g><g><path d="M0 0 137.096 0 137.096 17.2308 1.51179e-06 17.2308Z" fill="#F2F2F2" fill-rule="nonzero" fill-opacity="1" transform="matrix(1.00133 0 0 1 41.2434 204.964)"/><text fill="#3C3C3C" fill-opacity="1" font-family="Open Sans,Open Sans_MSFontService,sans-serif" font-style="normal" font-variant="normal" font-weight="400" font-stretch="normal" font-size="13" text-anchor="start" direction="ltr" writing-mode="lr-tb" unicode-bidi="normal" text-decoration="none" transform="matrix(0.539179 0 0 0.538462 46.6352 215)">profile_id</text><path d="M2.42839 3.4794C2.32324 3.4794 2.22436 3.43842 2.14986 3.36405 1.56152 2.77564 1.56152 1.81824 2.14986 1.22987L2.93837 0.441355C3.22293 0.156735 3.60187 -2.2956e-16 4.00542 -2.2956e-16 4.40898 -2.2956e-16 4.78791 0.156735 5.07246 0.441355 5.6608 1.02973 5.6608 1.98713 5.07246 2.5755L4.54682 3.10117C4.47245 3.17558 4.37358 3.21655 4.2683 3.21659 4.16315 3.21659 4.06428 3.17561 3.98977 3.10124 3.9154 3.02683 3.87436 2.9279 3.87436 2.82265 3.87436 2.71743 3.91539 2.6185 3.98977 2.54409L4.51541 2.01842C4.79663 1.73721 4.79663 1.27966 4.51541 0.998469 4.37948 0.86254 4.19829 0.787651 4.00542 0.787651 3.81256 0.787651 3.63136 0.86254 3.49543 0.998469L2.70692 1.78698C2.4257 2.06817 2.4257 2.52571 2.70692 2.8069 2.86054 2.96049 2.86054 3.21043 2.70692 3.36402 2.63241 3.43843 2.53354 3.4794 2.42839 3.4794ZM1.50842 5.51385C1.10487 5.51385 0.725932 5.35711 0.441388 5.07249-0.146957 4.48411-0.146957 3.52672 0.441388 2.93834L0.835714 2.54405C0.910086 2.46968 1.00909 2.4287 1.11424 2.4287 1.21939 2.4287 1.31839 2.4697 1.39276 2.54411 1.46714 2.61848 1.50818 2.71742 1.50818 2.82264 1.50818 2.92788 1.46715 3.02682 1.39276 3.10123L0.998437 3.49549C0.71722 3.77664 0.71722 4.23418 0.998437 4.51538 1.13437 4.65131 1.31556 4.7262 1.50842 4.7262 1.70129 4.7262 1.88248 4.65134 2.01841 4.51538L2.80692 3.72686C3.08814 3.44568 3.08814 2.98814 2.80692 2.70694 2.73255 2.63254 2.69151 2.5336 2.69151 2.42839 2.69151 2.32317 2.73254 2.22423 2.80692 2.14983 2.8813 2.07542 2.9803 2.03448 3.08545 2.03448 3.1906 2.03448 3.2896 2.07541 3.36397 2.1498 3.95232 2.73821 3.95232 3.6956 3.36397 4.28398L2.57546 5.07249C2.29092 5.35711 1.91198 5.51385 1.50842 5.51385Z" fill="#3C3C3C" fill-rule="nonzero" fill-opacity="1" transform="matrix(1.00133 0 0 1 79.1223 210.015)"/><path d="M1.07692 0 11.8462 0C11.8462 0 12.9231 0 12.9231 1.07692L12.9231 7.53846C12.9231 7.53846 12.9231 8.61539 11.8462 8.61539L1.07692 8.61539C1.07692 8.61539 0 8.61539 0 7.53846L0 1.07692C0 1.07692 0 0 1.07692 0" fill="#DEDEDE" fill-rule="nonzero" fill-opacity="1" transform="matrix(1.00133 0 0 1 160.19 208.464)"/><path d="M5.82142 6.73077 5.19249 6.73077 2.63515 2.66026 2.60948 2.66026C2.6159 2.76855 2.62338 2.8923 2.63195 3.03152 2.6405 3.16852 2.64692 3.31548 2.6512 3.47238 2.65761 3.62707 2.66082 3.78507 2.66082 3.94638L2.66082 6.73077 2.15385 6.73077 2.15385 1.88462 2.77954 1.88462 5.32726 5.94187 5.34972 5.94187C5.34544 5.86449 5.3401 5.75513 5.33368 5.61368 5.32726 5.47007 5.32084 5.31648 5.31443 5.15295 5.31015 4.98721 5.30801 4.83363 5.30801 4.6922L5.30801 1.88462 5.82142 1.88462 5.82142 6.73077Z" fill="#3C3C3C" fill-rule="nonzero" fill-opacity="1" transform="matrix(1.00133 0 0 1 160.19 208.464)"/><path d="M10.7692 6.73077 10.1403 6.73077 7.58299 2.66026 7.55731 2.66026C7.56372 2.76855 7.5712 2.8923 7.57976 3.03152 7.58832 3.16852 7.59473 3.31548 7.59904 3.47238 7.60545 3.62707 7.60868 3.78507 7.60868 3.94638L7.60868 6.73077 7.10166 6.73077 7.10166 1.88462 7.72735 1.88462 10.2751 5.94187 10.2975 5.94187C10.2933 5.86449 10.2879 5.75513 10.2815 5.61368 10.2751 5.47007 10.2687 5.31648 10.2623 5.15295 10.258 4.98721 10.2559 4.83363 10.2559 4.6922L10.2559 1.88462 10.7692 1.88462 10.7692 6.73077Z" fill="#3C3C3C" fill-rule="nonzero" fill-opacity="1" transform="matrix(1.00133 0 0 1 160.19 208.464)"/><text fill="#6A6A6A" fill-opacity="1" font-family="Inconsolata,Inconsolata_MSFontService,sans-serif" font-style="normal" font-variant="normal" font-weight="400" font-stretch="normal" font-size="13" text-anchor="start" direction="ltr" writing-mode="lr-tb" unicode-bidi="normal" text-decoration="none" transform="matrix(0.539179 0 0 0.538462 147.519 215)">int</text></g><g><path d="M0 0 137.096 0 137.096 17.2308 1.51179e-06 17.2308Z" fill="#F2F2F2" fill-rule="nonzero" fill-opacity="1" transform="matrix(1.00133 0 0 1 41.2434 222.195)"/><text fill="#3C3C3C" fill-opacity="1" font-family="Open Sans,Open Sans_MSFontService,sans-serif" font-style="normal" font-variant="normal" font-weight="400" font-stretch="normal" font-size="13" text-anchor="start" direction="ltr" writing-mode="lr-tb" unicode-bidi="normal" text-decoration="none" transform="matrix(0.539179 0 0 0.538462 46.6352 233)">offer_id</text><path d="M1.07692 0 11.8462 0C11.8462 0 12.9231 0 12.9231 1.07692L12.9231 7.53846C12.9231 7.53846 12.9231 8.61539 11.8462 8.61539L1.07692 8.61539C1.07692 8.61539 0 8.61539 0 7.53846L0 1.07692C0 1.07692 0 0 1.07692 0" fill="#DEDEDE" fill-rule="nonzero" fill-opacity="1" transform="matrix(1.00133 0 0 1 160.19 225.695)"/><path d="M5.82142 6.73077 5.19249 6.73077 2.63515 2.66026 2.60948 2.66026C2.6159 2.76855 2.62338 2.8923 2.63195 3.03152 2.6405 3.16852 2.64692 3.31548 2.6512 3.47238 2.65761 3.62707 2.66082 3.78507 2.66082 3.94638L2.66082 6.73077 2.15385 6.73077 2.15385 1.88462 2.77954 1.88462 5.32726 5.94187 5.34972 5.94187C5.34544 5.86449 5.3401 5.75513 5.33368 5.61368 5.32726 5.47007 5.32084 5.31648 5.31443 5.15295 5.31015 4.98721 5.30801 4.83363 5.30801 4.6922L5.30801 1.88462 5.82142 1.88462 5.82142 6.73077Z" fill="#3C3C3C" fill-rule="nonzero" fill-opacity="1" transform="matrix(1.00133 0 0 1 160.19 225.695)"/><path d="M10.7692 6.73077 10.1403 6.73077 7.58299 2.66026 7.55731 2.66026C7.56372 2.76855 7.5712 2.8923 7.57976 3.03152 7.58832 3.16852 7.59473 3.31548 7.59904 3.47238 7.60545 3.62707 7.60868 3.78507 7.60868 3.94638L7.60868 6.73077 7.10166 6.73077 7.10166 1.88462 7.72735 1.88462 10.2751 5.94187 10.2975 5.94187C10.2933 5.86449 10.2879 5.75513 10.2815 5.61368 10.2751 5.47007 10.2687 5.31648 10.2623 5.15295 10.258 4.98721 10.2559 4.83363 10.2559 4.6922L10.2559 1.88462 10.7692 1.88462 10.7692 6.73077Z" fill="#3C3C3C" fill-rule="nonzero" fill-opacity="1" transform="matrix(1.00133 0 0 1 160.19 225.695)"/><text fill="#6A6A6A" fill-opacity="1" font-family="Inconsolata,Inconsolata_MSFontService,sans-serif" font-style="normal" font-variant="normal" font-weight="400" font-stretch="normal" font-size="13" text-anchor="start" direction="ltr" writing-mode="lr-tb" unicode-bidi="normal" text-decoration="none" transform="matrix(0.539179 0 0 0.538462 147.519 233)">int</text></g><g><path d="M0 0 137.096 0 137.096 17.2308 1.51179e-06 17.2308Z" fill="#F2F2F2" fill-rule="nonzero" fill-opacity="1" transform="matrix(1.00133 0 0 1 41.2434 239.425)"/><text fill="#3C3C3C" fill-opacity="1" font-family="Open Sans,Open Sans_MSFontService,sans-serif" font-style="normal" font-variant="normal" font-weight="400" font-stretch="normal" font-size="13" text-anchor="start" direction="ltr" writing-mode="lr-tb" unicode-bidi="normal" text-decoration="none" transform="matrix(0.539179 0 0 0.538462 46.6352 250)">status</text><path d="M1.07692 0 11.8462 0C11.8462 0 12.9231 0 12.9231 1.07692L12.9231 7.53846C12.9231 7.53846 12.9231 8.61539 11.8462 8.61539L1.07692 8.61539C1.07692 8.61539 0 8.61539 0 7.53846L0 1.07692C0 1.07692 0 0 1.07692 0" fill="#DEDEDE" fill-rule="nonzero" fill-opacity="1" transform="matrix(1.00133 0 0 1 160.19 242.925)"/><path d="M5.82142 6.73077 5.19249 6.73077 2.63515 2.66026 2.60948 2.66026C2.6159 2.76855 2.62338 2.8923 2.63195 3.03152 2.6405 3.16852 2.64692 3.31548 2.6512 3.47238 2.65761 3.62707 2.66082 3.78507 2.66082 3.94638L2.66082 6.73077 2.15385 6.73077 2.15385 1.88462 2.77954 1.88462 5.32726 5.94187 5.34972 5.94187C5.34544 5.86449 5.3401 5.75513 5.33368 5.61368 5.32726 5.47007 5.32084 5.31648 5.31443 5.15295 5.31015 4.98721 5.30801 4.83363 5.30801 4.6922L5.30801 1.88462 5.82142 1.88462 5.82142 6.73077Z" fill="#3C3C3C" fill-rule="nonzero" fill-opacity="1" transform="matrix(1.00133 0 0 1 160.19 242.925)"/><path d="M10.7692 6.73077 10.1403 6.73077 7.58299 2.66026 7.55731 2.66026C7.56372 2.76855 7.5712 2.8923 7.57976 3.03152 7.58832 3.16852 7.59473 3.31548 7.59904 3.47238 7.60545 3.62707 7.60868 3.78507 7.60868 3.94638L7.60868 6.73077 7.10166 6.73077 7.10166 1.88462 7.72735 1.88462 10.2751 5.94187 10.2975 5.94187C10.2933 5.86449 10.2879 5.75513 10.2815 5.61368 10.2751 5.47007 10.2687 5.31648 10.2623 5.15295 10.258 4.98721 10.2559 4.83363 10.2559 4.6922L10.2559 1.88462 10.7692 1.88462 10.7692 6.73077Z" fill="#3C3C3C" fill-rule="nonzero" fill-opacity="1" transform="matrix(1.00133 0 0 1 160.19 242.925)"/><path d="M1.07692 0 5.90601 0C5.90601 0 6.98293 0 6.98293 1.07692L6.98293 7.53846C6.98293 7.53846 6.98293 8.61539 5.90601 8.61539L1.07692 8.61539C1.07692 8.61539 0 8.61539 0 7.53846L0 1.07692C0 1.07692 0 0 1.07692 0" fill="#DEDEDE" fill-rule="nonzero" fill-opacity="1" transform="matrix(1.00133 0 0 1 151.023 242.925)"/><path d="M4.82906 6.70998 2.15385 6.70998 2.15385 1.90513 4.82906 1.90513 4.82906 2.3981 2.71255 2.3981 2.71255 3.95262 4.70746 3.95262 4.70746 4.43902 2.71255 4.43902 2.71255 6.21702 4.82906 6.21702 4.82906 6.70998Z" fill="#3C3C3C" fill-rule="nonzero" fill-opacity="1" transform="matrix(1.00133 0 0 1 151.023 242.925)"/><text fill="#6A6A6A" fill-opacity="1" font-family="Inconsolata,Inconsolata_MSFontService,sans-serif" font-style="normal" font-variant="normal" font-weight="400" font-stretch="normal" font-size="13" text-anchor="start" direction="ltr" writing-mode="lr-tb" unicode-bidi="normal" text-decoration="none" transform="matrix(0.539179 0 0 0.538462 103.306 250)">RequestStatus</text></g><g><path d="M0 0 137.096 0 137.096 17.2308 1.51179e-06 17.2308Z" fill="#F2F2F2" fill-rule="nonzero" fill-opacity="1" transform="matrix(1.00133 0 0 1 41.2434 256.656)"/><text fill="#3C3C3C" fill-opacity="1" font-family="Open Sans,Open Sans_MSFontService,sans-serif" font-style="normal" font-variant="normal" font-weight="400" font-stretch="normal" font-size="13" text-anchor="start" direction="ltr" writing-mode="lr-tb" unicode-bidi="normal" text-decoration="none" transform="matrix(0.539179 0 0 0.538462 46.6352 267)">created_at</text><path d="M1.07692 0 11.8462 0C11.8462 0 12.9231 0 12.9231 1.07692L12.9231 7.53846C12.9231 7.53846 12.9231 8.61539 11.8462 8.61539L1.07692 8.61539C1.07692 8.61539 0 8.61539 0 7.53846L0 1.07692C0 1.07692 0 0 1.07692 0" fill="#DEDEDE" fill-rule="nonzero" fill-opacity="1" transform="matrix(1.00133 0 0 1 160.19 260.156)"/><path d="M5.82142 6.73077 5.19249 6.73077 2.63515 2.66026 2.60948 2.66026C2.6159 2.76855 2.62338 2.8923 2.63195 3.03152 2.6405 3.16852 2.64692 3.31548 2.6512 3.47238 2.65761 3.62707 2.66082 3.78507 2.66082 3.94638L2.66082 6.73077 2.15385 6.73077 2.15385 1.88462 2.77954 1.88462 5.32726 5.94187 5.34972 5.94187C5.34544 5.86449 5.3401 5.75513 5.33368 5.61368 5.32726 5.47007 5.32084 5.31648 5.31443 5.15295 5.31015 4.98721 5.30801 4.83363 5.30801 4.6922L5.30801 1.88462 5.82142 1.88462 5.82142 6.73077Z" fill="#3C3C3C" fill-rule="nonzero" fill-opacity="1" transform="matrix(1.00133 0 0 1 160.19 260.156)"/><path d="M10.7692 6.73077 10.1403 6.73077 7.58299 2.66026 7.55731 2.66026C7.56372 2.76855 7.5712 2.8923 7.57976 3.03152 7.58832 3.16852 7.59473 3.31548 7.59904 3.47238 7.60545 3.62707 7.60868 3.78507 7.60868 3.94638L7.60868 6.73077 7.10166 6.73077 7.10166 1.88462 7.72735 1.88462 10.2751 5.94187 10.2975 5.94187C10.2933 5.86449 10.2879 5.75513 10.2815 5.61368 10.2751 5.47007 10.2687 5.31648 10.2623 5.15295 10.258 4.98721 10.2559 4.83363 10.2559 4.6922L10.2559 1.88462 10.7692 1.88462 10.7692 6.73077Z" fill="#3C3C3C" fill-rule="nonzero" fill-opacity="1" transform="matrix(1.00133 0 0 1 160.19 260.156)"/><text fill="#6A6A6A" fill-opacity="1" font-family="Inconsolata,Inconsolata_MSFontService,sans-serif" font-style="normal" font-variant="normal" font-weight="400" font-stretch="normal" font-size="13" text-anchor="start" direction="ltr" writing-mode="lr-tb" unicode-bidi="normal" text-decoration="none" transform="matrix(0.539179 0 0 0.538462 129.995 267)">datetime</text></g><g><path d="M0 0 137.096 0 137.096 17.2308 1.51179e-06 17.2308Z" fill="#F2F2F2" fill-rule="nonzero" fill-opacity="1" transform="matrix(1.00133 0 0 1 41.2434 273.887)"/><text fill="#3C3C3C" fill-opacity="1" font-family="Open Sans,Open Sans_MSFontService,sans-serif" font-style="normal" font-variant="normal" font-weight="400" font-stretch="normal" font-size="13" text-anchor="start" direction="ltr" writing-mode="lr-tb" unicode-bidi="normal" text-decoration="none" transform="matrix(0.539179 0 0 0.538462 46.6352 284)">budget</text><text fill="#6A6A6A" fill-opacity="1" font-family="Inconsolata,Inconsolata_MSFontService,sans-serif" font-style="normal" font-variant="normal" font-weight="400" font-stretch="normal" font-size="13" text-anchor="start" direction="ltr" writing-mode="lr-tb" unicode-bidi="normal" text-decoration="none" transform="matrix(0.539179 0 0 0.538462 127.569 284)">decimal(10,2)</text></g><g><path d="M0 0 137.096 0 137.096 17.2308 1.51179e-06 17.2308Z" fill="#F2F2F2" fill-rule="nonzero" fill-opacity="1" transform="matrix(1.00133 0 0 1 41.2434 291.118)"/><text fill="#3C3C3C" fill-opacity="1" font-family="Open Sans,Open Sans_MSFontService,sans-serif" font-style="normal" font-variant="normal" font-weight="400" font-stretch="normal" font-size="13" text-anchor="start" direction="ltr" writing-mode="lr-tb" unicode-bidi="normal" text-decoration="none" transform="matrix(0.539179 0 0 0.538462 46.6352 301)">preferred_date</text><text fill="#6A6A6A" fill-opacity="1" font-family="Inconsolata,Inconsolata_MSFontService,sans-serif" font-style="normal" font-variant="normal" font-weight="400" font-stretch="normal" font-size="13" text-anchor="start" direction="ltr" writing-mode="lr-tb" unicode-bidi="normal" text-decoration="none" transform="matrix(0.539179 0 0 0.538462 159.111 301)">date</text></g><g><path d="M0 0 137.096 0 137.096 17.2308 1.51179e-06 17.2308Z" fill="#F2F2F2" fill-rule="nonzero" fill-opacity="1" transform="matrix(1.00133 0 0 1 41.2434 308.348)"/><text fill="#3C3C3C" fill-opacity="1" font-family="Open Sans,Open Sans_MSFontService,sans-serif" font-style="normal" font-variant="normal" font-weight="400" font-stretch="normal" font-size="13" text-anchor="start" direction="ltr" writing-mode="lr-tb" unicode-bidi="normal" text-decoration="none" transform="matrix(0.539179 0 0 0.538462 46.6352 319)">participants_count</text><text fill="#6A6A6A" fill-opacity="1" font-family="Inconsolata,Inconsolata_MSFontService,sans-serif" font-style="normal" font-variant="normal" font-weight="400" font-stretch="normal" font-size="13" text-anchor="start" direction="ltr" writing-mode="lr-tb" unicode-bidi="normal" text-decoration="none" transform="matrix(0.539179 0 0 0.538462 162.616 319)">int</text></g><g><path d="M0 0 137.096 0 137.096 15.6154C137.096 16.5076 136.372 17.2308 135.48 17.2308L1.61538 17.2308C0.723235 17.2308 0 16.5076 0 15.6154Z" fill="#F2F2F2" fill-rule="nonzero" fill-opacity="1" transform="matrix(1.00133 0 0 1 41.2434 325.579)"/><text fill="#3C3C3C" fill-opacity="1" font-family="Open Sans,Open Sans_MSFontService,sans-serif" font-style="normal" font-variant="normal" font-weight="400" font-stretch="normal" font-size="13" text-anchor="start" direction="ltr" writing-mode="lr-tb" unicode-bidi="normal" text-decoration="none" transform="matrix(0.539179 0 0 0.538462 46.6352 336)">special_requests</text><text fill="#6A6A6A" fill-opacity="1" font-family="Inconsolata,Inconsolata_MSFontService,sans-serif" font-style="normal" font-variant="normal" font-weight="400" font-stretch="normal" font-size="13" text-anchor="start" direction="ltr" writing-mode="lr-tb" unicode-bidi="normal" text-decoration="none" transform="matrix(0.539179 0 0 0.538462 159.111 336)">text</text></g><g><path d="M1.61538 0 155.385 0C156.277 -2.39125e-16 157 0.723235 157 1.61538L157 17.2308 0 17.2308 0 1.61538C-2.39125e-16 0.723235 0.723235 0 1.61538 0Z" fill="#316896" fill-rule="nonzero" fill-opacity="1" transform="matrix(1.00133 0 0 1 215.585 160.131)"/><text fill="#FFFFFF" fill-opacity="1" font-family="Open Sans,Open Sans_MSFontService,sans-serif" font-style="normal" font-variant="normal" font-weight="700" font-stretch="normal" font-size="13" text-anchor="start" direction="ltr" writing-mode="lr-tb" unicode-bidi="normal" text-decoration="none" transform="matrix(0.539179 0 0 0.538462 220.977 170)">Proposal</text></g><g><path d="M0 0 157 0 157 17.2308-4.86403e-06 17.2308Z" fill="#F2F2F2" fill-rule="nonzero" fill-opacity="1" transform="matrix(1.00133 0 0 1 215.585 177.362)"/><text fill="#2C2C2C" fill-opacity="1" font-family="Open Sans,Open Sans_MSFontService,sans-serif" font-style="normal" font-variant="normal" font-weight="700" font-stretch="normal" font-size="13" text-anchor="start" direction="ltr" writing-mode="lr-tb" unicode-bidi="normal" text-decoration="none" transform="matrix(0.539179 0 0 0.538462 220.977 188)">id</text><path d="M3.53365 0.530062C4.41188 0.530062 5.12379 1.24196 5.12379 2.12019 5.12379 2.99842 4.41188 3.71032 3.53365 3.71032 3.32419 3.71032 3.12426 3.66978 2.94108 3.59617L2.47358 4.06372 2.12019 4.06372 2.12019 4.59378 1.59013 4.59378 1.59013 5.12379 0.530062 5.12379 0.530062 4.06372 2.01169 2.58203C1.96635 2.43228 1.94342 2.27667 1.94352 2.12019 1.94352 1.24196 2.65542 0.530062 3.53365 0.530062ZM3.53365 0C2.36277 0 1.41346 0.949146 1.41346 2.12019 1.41346 2.21771 1.42008 2.31479 1.43333 2.4108L0.0775923 3.76654C0.0279462 3.81624 0 3.88365 0 3.95392L0 5.38882C0 5.53522 0.118677 5.65385 0.265031 5.65385L1.85516 5.65385C2.00152 5.65385 2.12019 5.53522 2.12019 5.38882L2.12019 5.12379 2.38522 5.12379C2.53158 5.12379 2.65025 5.00516 2.65025 4.85875L2.65025 4.63793 3.09249 4.19435C3.23669 4.22498 3.38412 4.24039 3.53365 4.24039 4.70454 4.24039 5.65385 3.29124 5.65385 2.12019 5.65385 0.949308 4.7047 0 3.53365 0ZM3.53365 1.59013C3.53365 1.88289 3.77095 2.12019 4.06372 2.12019 4.35642 2.12019 4.59378 1.88289 4.59378 1.59013 4.59378 1.29742 4.35642 1.06012 4.06372 1.06012 3.77095 1.06012 3.53365 1.29742 3.53365 1.59013Z" fill="#2C2C2C" fill-rule="nonzero" fill-opacity="1" transform="matrix(1.00133 0 0 1 229.709 182.342)"/><text fill="#6A6A6A" fill-opacity="1" font-family="Inconsolata,Inconsolata_MSFontService,sans-serif" font-style="normal" font-variant="normal" font-weight="700" font-stretch="normal" font-size="13" text-anchor="start" direction="ltr" writing-mode="lr-tb" unicode-bidi="normal" text-decoration="none" transform="matrix(0.539179 0 0 0.538462 356.889 188)">int</text></g><g><path d="M0 0 157 0 157 17.2308-4.86403e-06 17.2308Z" fill="#F2F2F2" fill-rule="nonzero" fill-opacity="1" transform="matrix(1.00133 0 0 1 215.585 194.592)"/><text fill="#3C3C3C" fill-opacity="1" font-family="Open Sans,Open Sans_MSFontService,sans-serif" font-style="normal" font-variant="normal" font-weight="400" font-stretch="normal" font-size="13" text-anchor="start" direction="ltr" writing-mode="lr-tb" unicode-bidi="normal" text-decoration="none" transform="matrix(0.539179 0 0 0.538462 220.977 205)">personalization_request_id</text><path d="M1.07692 0 11.8462 0C11.8462 0 12.9231 0 12.9231 1.07692L12.9231 7.53846C12.9231 7.53846 12.9231 8.61539 11.8462 8.61539L1.07692 8.61539C1.07692 8.61539 0 8.61539 0 7.53846L0 1.07692C0 1.07692 0 0 1.07692 0" fill="#DEDEDE" fill-rule="nonzero" fill-opacity="1" transform="matrix(1.00133 0 0 1 354.463 198.092)"/><path d="M5.82142 6.73077 5.19249 6.73077 2.63515 2.66026 2.60948 2.66026C2.6159 2.76855 2.62338 2.8923 2.63195 3.03152 2.6405 3.16852 2.64692 3.31548 2.6512 3.47238 2.65761 3.62707 2.66082 3.78507 2.66082 3.94638L2.66082 6.73077 2.15385 6.73077 2.15385 1.88462 2.77954 1.88462 5.32726 5.94187 5.34972 5.94187C5.34544 5.86449 5.3401 5.75513 5.33368 5.61368 5.32726 5.47007 5.32084 5.31648 5.31443 5.15295 5.31015 4.98721 5.30801 4.83363 5.30801 4.6922L5.30801 1.88462 5.82142 1.88462 5.82142 6.73077Z" fill="#3C3C3C" fill-rule="nonzero" fill-opacity="1" transform="matrix(1.00133 0 0 1 354.463 198.092)"/><path d="M10.7692 6.73077 10.1403 6.73077 7.58299 2.66026 7.55731 2.66026C7.56372 2.76855 7.5712 2.8923 7.57976 3.03152 7.58832 3.16852 7.59473 3.31548 7.59904 3.47238 7.60545 3.62707 7.60868 3.78507 7.60868 3.94638L7.60868 6.73077 7.10166 6.73077 7.10166 1.88462 7.72735 1.88462 10.2751 5.94187 10.2975 5.94187C10.2933 5.86449 10.2879 5.75513 10.2815 5.61368 10.2751 5.47007 10.2687 5.31648 10.2623 5.15295 10.258 4.98721 10.2559 4.83363 10.2559 4.6922L10.2559 1.88462 10.7692 1.88462 10.7692 6.73077Z" fill="#3C3C3C" fill-rule="nonzero" fill-opacity="1" transform="matrix(1.00133 0 0 1 354.463 198.092)"/><text fill="#6A6A6A" fill-opacity="1" font-family="Inconsolata,Inconsolata_MSFontService,sans-serif" font-style="normal" font-variant="normal" font-weight="400" font-stretch="normal" font-size="13" text-anchor="start" direction="ltr" writing-mode="lr-tb" unicode-bidi="normal" text-decoration="none" transform="matrix(0.539179 0 0 0.538462 341.792 205)">int</text></g><g><path d="M0 0 157 0 157 17.2308-4.86403e-06 17.2308Z" fill="#F2F2F2" fill-rule="nonzero" fill-opacity="1" transform="matrix(1.00133 0 0 1 215.585 211.823)"/><text fill="#3C3C3C" fill-opacity="1" font-family="Open Sans,Open Sans_MSFontService,sans-serif" font-style="normal" font-variant="normal" font-weight="400" font-stretch="normal" font-size="13" text-anchor="start" direction="ltr" writing-mode="lr-tb" unicode-bidi="normal" text-decoration="none" transform="matrix(0.539179 0 0 0.538462 220.977 222)">total_price</text><path d="M1.07692 0 11.8462 0C11.8462 0 12.9231 0 12.9231 1.07692L12.9231 7.53846C12.9231 7.53846 12.9231 8.61539 11.8462 8.61539L1.07692 8.61539C1.07692 8.61539 0 8.61539 0 7.53846L0 1.07692C0 1.07692 0 0 1.07692 0" fill="#DEDEDE" fill-rule="nonzero" fill-opacity="1" transform="matrix(1.00133 0 0 1 354.463 215.323)"/><path d="M5.82142 6.73077 5.19249 6.73077 2.63515 2.66026 2.60948 2.66026C2.6159 2.76855 2.62338 2.8923 2.63195 3.03152 2.6405 3.16852 2.64692 3.31548 2.6512 3.47238 2.65761 3.62707 2.66082 3.78507 2.66082 3.94638L2.66082 6.73077 2.15385 6.73077 2.15385 1.88462 2.77954 1.88462 5.32726 5.94187 5.34972 5.94187C5.34544 5.86449 5.3401 5.75513 5.33368 5.61368 5.32726 5.47007 5.32084 5.31648 5.31443 5.15295 5.31015 4.98721 5.30801 4.83363 5.30801 4.6922L5.30801 1.88462 5.82142 1.88462 5.82142 6.73077Z" fill="#3C3C3C" fill-rule="nonzero" fill-opacity="1" transform="matrix(1.00133 0 0 1 354.463 215.323)"/><path d="M10.7692 6.73077 10.1403 6.73077 7.58299 2.66026 7.55731 2.66026C7.56372 2.76855 7.5712 2.8923 7.57976 3.03152 7.58832 3.16852 7.59473 3.31548 7.59904 3.47238 7.60545 3.62707 7.60868 3.78507 7.60868 3.94638L7.60868 6.73077 7.10166 6.73077 7.10166 1.88462 7.72735 1.88462 10.2751 5.94187 10.2975 5.94187C10.2933 5.86449 10.2879 5.75513 10.2815 5.61368 10.2751 5.47007 10.2687 5.31648 10.2623 5.15295 10.258 4.98721 10.2559 4.83363 10.2559 4.6922L10.2559 1.88462 10.7692 1.88462 10.7692 6.73077Z" fill="#3C3C3C" fill-rule="nonzero" fill-opacity="1" transform="matrix(1.00133 0 0 1 354.463 215.323)"/><text fill="#6A6A6A" fill-opacity="1" font-family="Inconsolata,Inconsolata_MSFontService,sans-serif" font-style="normal" font-variant="normal" font-weight="400" font-stretch="normal" font-size="13" text-anchor="start" direction="ltr" writing-mode="lr-tb" unicode-bidi="normal" text-decoration="none" transform="matrix(0.539179 0 0 0.538462 306.745 222)">decimal(10,2)</text></g><g><path d="M0 0 157 0 157 17.2308-4.86403e-06 17.2308Z" fill="#F2F2F2" fill-rule="nonzero" fill-opacity="1" transform="matrix(1.00133 0 0 1 215.585 229.054)"/><text fill="#3C3C3C" fill-opacity="1" font-family="Open Sans,Open Sans_MSFontService,sans-serif" font-style="normal" font-variant="normal" font-weight="400" font-stretch="normal" font-size="13" text-anchor="start" direction="ltr" writing-mode="lr-tb" unicode-bidi="normal" text-decoration="none" transform="matrix(0.539179 0 0 0.538462 220.977 239)">valid_until</text><text fill="#6A6A6A" fill-opacity="1" font-family="Inconsolata,Inconsolata_MSFontService,sans-serif" font-style="normal" font-variant="normal" font-weight="400" font-stretch="normal" font-size="13" text-anchor="start" direction="ltr" writing-mode="lr-tb" unicode-bidi="normal" text-decoration="none" transform="matrix(0.539179 0 0 0.538462 353.384 239)">date</text></g><g><path d="M0 0 157 0 157 17.2308-4.86403e-06 17.2308Z" fill="#F2F2F2" fill-rule="nonzero" fill-opacity="1" transform="matrix(1.00133 0 0 1 215.585 246.285)"/><text fill="#3C3C3C" fill-opacity="1" font-family="Open Sans,Open Sans_MSFontService,sans-serif" font-style="normal" font-variant="normal" font-weight="400" font-stretch="normal" font-size="13" text-anchor="start" direction="ltr" writing-mode="lr-tb" unicode-bidi="normal" text-decoration="none" transform="matrix(0.539179 0 0 0.538462 220.977 257)">status</text><path d="M1.07692 0 11.8462 0C11.8462 0 12.9231 0 12.9231 1.07692L12.9231 7.53846C12.9231 7.53846 12.9231 8.61539 11.8462 8.61539L1.07692 8.61539C1.07692 8.61539 0 8.61539 0 7.53846L0 1.07692C0 1.07692 0 0 1.07692 0" fill="#DEDEDE" fill-rule="nonzero" fill-opacity="1" transform="matrix(1.00133 0 0 1 354.463 249.785)"/><path d="M5.82142 6.73077 5.19249 6.73077 2.63515 2.66026 2.60948 2.66026C2.6159 2.76855 2.62338 2.8923 2.63195 3.03152 2.6405 3.16852 2.64692 3.31548 2.6512 3.47238 2.65761 3.62707 2.66082 3.78507 2.66082 3.94638L2.66082 6.73077 2.15385 6.73077 2.15385 1.88462 2.77954 1.88462 5.32726 5.94187 5.34972 5.94187C5.34544 5.86449 5.3401 5.75513 5.33368 5.61368 5.32726 5.47007 5.32084 5.31648 5.31443 5.15295 5.31015 4.98721 5.30801 4.83363 5.30801 4.6922L5.30801 1.88462 5.82142 1.88462 5.82142 6.73077Z" fill="#3C3C3C" fill-rule="nonzero" fill-opacity="1" transform="matrix(1.00133 0 0 1 354.463 249.785)"/><path d="M10.7692 6.73077 10.1403 6.73077 7.58299 2.66026 7.55731 2.66026C7.56372 2.76855 7.5712 2.8923 7.57976 3.03152 7.58832 3.16852 7.59473 3.31548 7.59904 3.47238 7.60545 3.62707 7.60868 3.78507 7.60868 3.94638L7.60868 6.73077 7.10166 6.73077 7.10166 1.88462 7.72735 1.88462 10.2751 5.94187 10.2975 5.94187C10.2933 5.86449 10.2879 5.75513 10.2815 5.61368 10.2751 5.47007 10.2687 5.31648 10.2623 5.15295 10.258 4.98721 10.2559 4.83363 10.2559 4.6922L10.2559 1.88462 10.7692 1.88462 10.7692 6.73077Z" fill="#3C3C3C" fill-rule="nonzero" fill-opacity="1" transform="matrix(1.00133 0 0 1 354.463 249.785)"/><path d="M1.07692 0 5.90601 0C5.90601 0 6.98293 0 6.98293 1.07692L6.98293 7.53846C6.98293 7.53846 6.98293 8.61539 5.90601 8.61539L1.07692 8.61539C1.07692 8.61539 0 8.61539 0 7.53846L0 1.07692C0 1.07692 0 0 1.07692 0" fill="#DEDEDE" fill-rule="nonzero" fill-opacity="1" transform="matrix(1.00133 0 0 1 345.297 249.785)"/><path d="M4.82906 6.70998 2.15385 6.70998 2.15385 1.90513 4.82906 1.90513 4.82906 2.3981 2.71255 2.3981 2.71255 3.95262 4.70746 3.95262 4.70746 4.43902 2.71255 4.43902 2.71255 6.21702 4.82906 6.21702 4.82906 6.70998Z" fill="#3C3C3C" fill-rule="nonzero" fill-opacity="1" transform="matrix(1.00133 0 0 1 345.297 249.785)"/><text fill="#6A6A6A" fill-opacity="1" font-family="Inconsolata,Inconsolata_MSFontService,sans-serif" font-style="normal" font-variant="normal" font-weight="400" font-stretch="normal" font-size="13" text-anchor="start" direction="ltr" writing-mode="lr-tb" unicode-bidi="normal" text-decoration="none" transform="matrix(0.539179 0 0 0.538462 294.075 257)">ProposalStatus</text></g><g><path d="M0 0 157 0 157 17.2308-4.86403e-06 17.2308Z" fill="#F2F2F2" fill-rule="nonzero" fill-opacity="1" transform="matrix(1.00133 0 0 1 215.585 263.516)"/><text fill="#3C3C3C" fill-opacity="1" font-family="Open Sans,Open Sans_MSFontService,sans-serif" font-style="normal" font-variant="normal" font-weight="400" font-stretch="normal" font-size="13" text-anchor="start" direction="ltr" writing-mode="lr-tb" unicode-bidi="normal" text-decoration="none" transform="matrix(0.539179 0 0 0.538462 220.977 274)">details</text><text fill="#6A6A6A" fill-opacity="1" font-family="Inconsolata,Inconsolata_MSFontService,sans-serif" font-style="normal" font-variant="normal" font-weight="400" font-stretch="normal" font-size="13" text-anchor="start" direction="ltr" writing-mode="lr-tb" unicode-bidi="normal" text-decoration="none" transform="matrix(0.539179 0 0 0.538462 353.384 274)">json</text></g><g><path d="M0 0 157 0 157 17.2308-4.86403e-06 17.2308Z" fill="#F2F2F2" fill-rule="nonzero" fill-opacity="1" transform="matrix(1.00133 0 0 1 215.585 280.746)"/><text fill="#3C3C3C" fill-opacity="1" font-family="Open Sans,Open Sans_MSFontService,sans-serif" font-style="normal" font-variant="normal" font-weight="400" font-stretch="normal" font-size="13" text-anchor="start" direction="ltr" writing-mode="lr-tb" unicode-bidi="normal" text-decoration="none" transform="matrix(0.539179 0 0 0.538462 220.977 291)">customer_feedback</text><text fill="#6A6A6A" fill-opacity="1" font-family="Inconsolata,Inconsolata_MSFontService,sans-serif" font-style="normal" font-variant="normal" font-weight="400" font-stretch="normal" font-size="13" text-anchor="start" direction="ltr" writing-mode="lr-tb" unicode-bidi="normal" text-decoration="none" transform="matrix(0.539179 0 0 0.538462 353.384 291)">text</text></g><g><path d="M0 0 157 0 157 17.2308-4.86403e-06 17.2308Z" fill="#F2F2F2" fill-rule="nonzero" fill-opacity="1" transform="matrix(1.00133 0 0 1 215.585 297.977)"/><text fill="#3C3C3C" fill-opacity="1" font-family="Open Sans,Open Sans_MSFontService,sans-serif" font-style="normal" font-variant="normal" font-weight="400" font-stretch="normal" font-size="13" text-anchor="start" direction="ltr" writing-mode="lr-tb" unicode-bidi="normal" text-decoration="none" transform="matrix(0.539179 0 0 0.538462 220.977 308)">created_at</text><path d="M1.07692 0 11.8462 0C11.8462 0 12.9231 0 12.9231 1.07692L12.9231 7.53846C12.9231 7.53846 12.9231 8.61539 11.8462 8.61539L1.07692 8.61539C1.07692 8.61539 0 8.61539 0 7.53846L0 1.07692C0 1.07692 0 0 1.07692 0" fill="#DEDEDE" fill-rule="nonzero" fill-opacity="1" transform="matrix(1.00133 0 0 1 354.463 301.477)"/><path d="M5.82142 6.73077 5.19249 6.73077 2.63515 2.66026 2.60948 2.66026C2.6159 2.76855 2.62338 2.8923 2.63195 3.03152 2.6405 3.16852 2.64692 3.31548 2.6512 3.47238 2.65761 3.62707 2.66082 3.78507 2.66082 3.94638L2.66082 6.73077 2.15385 6.73077 2.15385 1.88462 2.77954 1.88462 5.32726 5.94187 5.34972 5.94187C5.34544 5.86449 5.3401 5.75513 5.33368 5.61368 5.32726 5.47007 5.32084 5.31648 5.31443 5.15295 5.31015 4.98721 5.30801 4.83363 5.30801 4.6922L5.30801 1.88462 5.82142 1.88462 5.82142 6.73077Z" fill="#3C3C3C" fill-rule="nonzero" fill-opacity="1" transform="matrix(1.00133 0 0 1 354.463 301.477)"/><path d="M10.7692 6.73077 10.1403 6.73077 7.58299 2.66026 7.55731 2.66026C7.56372 2.76855 7.5712 2.8923 7.57976 3.03152 7.58832 3.16852 7.59473 3.31548 7.59904 3.47238 7.60545 3.62707 7.60868 3.78507 7.60868 3.94638L7.60868 6.73077 7.10166 6.73077 7.10166 1.88462 7.72735 1.88462 10.2751 5.94187 10.2975 5.94187C10.2933 5.86449 10.2879 5.75513 10.2815 5.61368 10.2751 5.47007 10.2687 5.31648 10.2623 5.15295 10.258 4.98721 10.2559 4.83363 10.2559 4.6922L10.2559 1.88462 10.7692 1.88462 10.7692 6.73077Z" fill="#3C3C3C" fill-rule="nonzero" fill-opacity="1" transform="matrix(1.00133 0 0 1 354.463 301.477)"/><text fill="#6A6A6A" fill-opacity="1" font-family="Inconsolata,Inconsolata_MSFontService,sans-serif" font-style="normal" font-variant="normal" font-weight="400" font-stretch="normal" font-size="13" text-anchor="start" direction="ltr" writing-mode="lr-tb" unicode-bidi="normal" text-decoration="none" transform="matrix(0.539179 0 0 0.538462 324.269 308)">datetime</text></g><g><path d="M0 0 157 0 157 15.6154C157 16.5076 156.277 17.2308 155.385 17.2308L1.61538 17.2308C0.723235 17.2308 0 16.5076 0 15.6154Z" fill="#F2F2F2" fill-rule="nonzero" fill-opacity="1" transform="matrix(1.00133 0 0 1 215.585 315.208)"/><text fill="#3C3C3C" fill-opacity="1" font-family="Open Sans,Open Sans_MSFontService,sans-serif" font-style="normal" font-variant="normal" font-weight="400" font-stretch="normal" font-size="13" text-anchor="start" direction="ltr" writing-mode="lr-tb" unicode-bidi="normal" text-decoration="none" transform="matrix(0.539179 0 0 0.538462 220.977 326)">updated_at</text><path d="M1.07692 0 11.8462 0C11.8462 0 12.9231 0 12.9231 1.07692L12.9231 7.53846C12.9231 7.53846 12.9231 8.61539 11.8462 8.61539L1.07692 8.61539C1.07692 8.61539 0 8.61539 0 7.53846L0 1.07692C0 1.07692 0 0 1.07692 0" fill="#DEDEDE" fill-rule="nonzero" fill-opacity="1" transform="matrix(1.00133 0 0 1 354.463 318.708)"/><path d="M5.82142 6.73077 5.19249 6.73077 2.63515 2.66026 2.60948 2.66026C2.6159 2.76855 2.62338 2.8923 2.63195 3.03152 2.6405 3.16852 2.64692 3.31548 2.6512 3.47238 2.65761 3.62707 2.66082 3.78507 2.66082 3.94638L2.66082 6.73077 2.15385 6.73077 2.15385 1.88462 2.77954 1.88462 5.32726 5.94187 5.34972 5.94187C5.34544 5.86449 5.3401 5.75513 5.33368 5.61368 5.32726 5.47007 5.32084 5.31648 5.31443 5.15295 5.31015 4.98721 5.30801 4.83363 5.30801 4.6922L5.30801 1.88462 5.82142 1.88462 5.82142 6.73077Z" fill="#3C3C3C" fill-rule="nonzero" fill-opacity="1" transform="matrix(1.00133 0 0 1 354.463 318.708)"/><path d="M10.7692 6.73077 10.1403 6.73077 7.58299 2.66026 7.55731 2.66026C7.56372 2.76855 7.5712 2.8923 7.57976 3.03152 7.58832 3.16852 7.59473 3.31548 7.59904 3.47238 7.60545 3.62707 7.60868 3.78507 7.60868 3.94638L7.60868 6.73077 7.10166 6.73077 7.10166 1.88462 7.72735 1.88462 10.2751 5.94187 10.2975 5.94187C10.2933 5.86449 10.2879 5.75513 10.2815 5.61368 10.2751 5.47007 10.2687 5.31648 10.2623 5.15295 10.258 4.98721 10.2559 4.83363 10.2559 4.6922L10.2559 1.88462 10.7692 1.88462 10.7692 6.73077Z" fill="#3C3C3C" fill-rule="nonzero" fill-opacity="1" transform="matrix(1.00133 0 0 1 354.463 318.708)"/><text fill="#6A6A6A" fill-opacity="1" font-family="Inconsolata,Inconsolata_MSFontService,sans-serif" font-style="normal" font-variant="normal" font-weight="400" font-stretch="normal" font-size="13" text-anchor="start" direction="ltr" writing-mode="lr-tb" unicode-bidi="normal" text-decoration="none" transform="matrix(0.539179 0 0 0.538462 324.269 326)">datetime</text></g></g></g></g></svg>